<?xml version="1.0" encoding="us-ascii" standalone="no"?><svg xmlns="http://www.w3.org/2000/svg" xmlns:xlink="http://www.w3.org/1999/xlink" contentStyleType="text/css" height="691px" preserveAspectRatio="none" style="width:1369px;height:691px;background:#FFFFFF;" version="1.1" viewBox="0 0 1369 691" width="1369px" zoomAndPan="magnify"><defs/><g><text fill="#000000" font-family="sans-serif" font-size="14" font-weight="bold" lengthAdjust="spacing" textLength="280" x="543" y="34.5332">AM Session PTL Process Workflow -Tyro</text><ellipse cx="852.25" cy="58.6094" fill="#222222" rx="10" ry="10" style="stroke:#222222;stroke-width:1.0;"/><path d="M889.75,78.6094 L889.75,186.7188 L1163.75,186.7188 L1163.75,88.6094 L1153.75,78.6094 L889.75,78.6094 " fill="#FEFFDD" style="stroke:#181818;stroke-width:0.5;"/><path d="M1153.75,78.6094 L1153.75,88.6094 L1163.75,88.6094 L1153.75,78.6094 " fill="#FEFFDD" style="stroke:#181818;stroke-width:0.5;"/><text fill="#000000" font-family="sans-serif" font-size="13" lengthAdjust="spacing" textLength="249" x="895.75" y="97.1045">If a parent submits a PTL form with a &#8220;from&#8221;</text><text fill="#000000" font-family="sans-serif" font-size="13" lengthAdjust="spacing" textLength="243" x="895.75" y="113.4561">time before the AM roll call and a &#8220;to&#8221; time</text><text fill="#000000" font-family="sans-serif" font-size="13" lengthAdjust="spacing" textLength="244" x="895.75" y="129.8076">after the AM roll call, and the ARF has not</text><text fill="#000000" font-family="sans-serif" font-size="13" lengthAdjust="spacing" textLength="239" x="895.75" y="146.1592">been sent to the parent within 30 minutes</text><text fill="#000000" font-family="sans-serif" font-size="13" lengthAdjust="spacing" textLength="234" x="895.75" y="162.5107">after the AM roll call, the ARF status will</text><text fill="#000000" font-family="sans-serif" font-size="13" lengthAdjust="spacing" textLength="113" x="895.75" y="178.8623">be changed to PTL.</text><polygon fill="#F1F1F1" points="826.75,186.7188,877.75,186.7188,889.75,198.7188,877.75,210.7188,826.75,210.7188,814.75,198.7188,826.75,186.7188" style="stroke:#181818;stroke-width:0.5;"/><text fill="#000000" font-family="sans-serif" font-size="11" lengthAdjust="spacing" textLength="51" x="826.75" y="203.2197">"PTL Note"</text><text fill="#000000" font-family="sans-serif" font-size="11" lengthAdjust="spacing" textLength="104" x="710.75" y="196.3018">"Submitted by Parent"</text><text fill="#000000" font-family="sans-serif" font-size="11" lengthAdjust="spacing" textLength="98" x="889.75" y="196.3018">"Added by Teacher"</text><polygon fill="#F1F1F1" points="464.5,220.7188,561.5,220.7188,573.5,232.7188,561.5,244.7188,464.5,244.7188,452.5,232.7188,464.5,220.7188" style="stroke:#181818;stroke-width:0.5;"/><text fill="#000000" font-family="sans-serif" font-size="11" lengthAdjust="spacing" textLength="97" x="464.5" y="237.2197">"Teacher approves"</text><text fill="#000000" font-family="sans-serif" font-size="11" lengthAdjust="spacing" textLength="28" x="424.5" y="230.3018">"Yes"</text><text fill="#000000" font-family="sans-serif" font-size="11" lengthAdjust="spacing" textLength="21" x="573.5" y="230.3018">"No"</text><path d="M344,254.7188 L344,280.2461 L324,284.2461 L344,288.2461 L344,313.7734 A0,0 0 0 0 344,313.7734 L672,313.7734 A0,0 0 0 0 672,313.7734 L672,264.7188 L662,254.7188 L344,254.7188 A0,0 0 0 0 344,254.7188 " fill="#FEFFDD" style="stroke:#181818;stroke-width:0.5;"/><path d="M662,254.7188 L662,264.7188 L672,264.7188 L662,254.7188 " fill="#FEFFDD" style="stroke:#181818;stroke-width:0.5;"/><text fill="#000000" font-family="sans-serif" font-size="13" lengthAdjust="spacing" textLength="303" x="350" y="273.2139">The student can perform DSI sign-out within the time</text><text fill="#000000" font-family="sans-serif" font-size="13" lengthAdjust="spacing" textLength="287" x="350" y="289.5654">interval specified in &#8220;Manage Time Interval for Sign</text><text fill="#000000" font-family="sans-serif" font-size="13" lengthAdjust="spacing" textLength="268" x="350" y="305.917">Out at DSI,&#8221; both before and after the set time.</text><rect fill="#F1F1F1" height="35.0938" rx="12.5" ry="12.5" style="stroke:#181818;stroke-width:0.5;" width="313" x="11" y="266.6992"/><text fill="#000000" font-family="sans-serif" font-size="12" lengthAdjust="spacing" textLength="293" x="21" y="289.1563">Student is allowed to perform DSI Leaving and Return</text><rect fill="#F1F1F1" height="35.0938" rx="12.5" ry="12.5" style="stroke:#181818;stroke-width:0.5;" width="333" x="682" y="254.7188"/><text fill="#000000" font-family="sans-serif" font-size="12" lengthAdjust="spacing" textLength="313" x="692" y="277.1758">Student is not allowed to perform DSI Leaving and Return</text><ellipse cx="848.5" cy="335.8125" fill="none" rx="11" ry="11" style="stroke:#222222;stroke-width:1.0;"/><ellipse cx="848.5" cy="335.8125" fill="#222222" rx="6" ry="6" style="stroke:#222222;stroke-width:1.0;"/><rect fill="#F1F1F1" height="35.0938" rx="12.5" ry="12.5" style="stroke:#181818;stroke-width:0.5;" width="313" x="1045" y="220.7188"/><text fill="#000000" font-family="sans-serif" font-size="12" lengthAdjust="spacing" textLength="293" x="1055" y="243.1758">Student is allowed to perform DSI Leaving and Return</text><polygon fill="#F1F1F1" points="852.25,356.8125,864.25,368.8125,852.25,380.8125,840.25,368.8125,852.25,356.8125" style="stroke:#181818;stroke-width:0.5;"/><rect fill="none" height="289.9844" style="stroke:#000000;stroke-width:1.5;" width="337" x="683.75" y="390.8125"/><path d="M715.75,390.8125 L715.75,401.4219 L705.75,411.4219 L683.75,411.4219 " fill="none" style="stroke:#000000;stroke-width:1.5;"/><text fill="#000000" font-family="sans-serif" font-size="14" lengthAdjust="spacing" textLength="22" x="686.75" y="406.3457">DSI</text><rect fill="#F1F1F1" height="35.0938" rx="12.5" ry="12.5" style="stroke:#181818;stroke-width:0.5;" width="126" x="789.25" y="428.4219"/><text fill="#000000" font-family="sans-serif" font-size="12" lengthAdjust="spacing" textLength="106" x="799.25" y="450.8789">Student Sign In DSI</text><line style="stroke:#181818;stroke-width:1.5;" x1="812.25" x2="897.75" y1="483.5156" y2="483.5156"/><rect fill="#F1F1F1" height="35.0938" rx="12.5" ry="12.5" style="stroke:#181818;stroke-width:0.5;" width="63" x="780.75" y="503.5156"/><text fill="#000000" font-family="sans-serif" font-size="12" lengthAdjust="spacing" textLength="43" x="790.75" y="525.9727">Leaving</text><rect fill="#F1F1F1" height="35.0938" rx="12.5" ry="12.5" style="stroke:#181818;stroke-width:0.5;" width="52" x="871.75" y="503.5156"/><text fill="#000000" font-family="sans-serif" font-size="12" lengthAdjust="spacing" textLength="32" x="881.75" y="525.9727">return</text><line style="stroke:#181818;stroke-width:1.5;" x1="812.25" x2="897.75" y1="558.6094" y2="558.6094"/><rect fill="#F1F1F1" height="35.0938" rx="12.5" ry="12.5" style="stroke:#181818;stroke-width:0.5;" width="177" x="763.75" y="578.6094"/><text fill="#000000" font-family="sans-serif" font-size="12" lengthAdjust="spacing" textLength="157" x="773.75" y="601.0664">Update the code on Classes</text><rect fill="#F1F1F1" height="35.0938" rx="12.5" ry="12.5" style="stroke:#181818;stroke-width:0.5;" width="317" x="693.75" y="633.7031"/><text fill="#000000" font-family="sans-serif" font-size="12" lengthAdjust="spacing" textLength="297" x="703.75" y="656.1602">update Sign Out / Sign In time in comment on Classes</text><line style="stroke:#181818;stroke-width:1.0;" x1="848.5" x2="848.5" y1="289.8125" y2="324.8125"/><polygon fill="#181818" points="844.5,314.8125,848.5,324.8125,852.5,314.8125,848.5,318.8125" style="stroke:#181818;stroke-width:1.0;"/><line style="stroke:#181818;stroke-width:1.0;" x1="452.5" x2="167.5" y1="232.7188" y2="232.7188"/><line style="stroke:#181818;stroke-width:1.0;" x1="167.5" x2="167.5" y1="232.7188" y2="266.6992"/><polygon fill="#181818" points="163.5,256.6992,167.5,266.6992,171.5,256.6992,167.5,260.6992" style="stroke:#181818;stroke-width:1.0;"/><line style="stroke:#181818;stroke-width:1.0;" x1="573.5" x2="848.5" y1="232.7188" y2="232.7188"/><line style="stroke:#181818;stroke-width:1.0;" x1="848.5" x2="848.5" y1="232.7188" y2="254.7188"/><polygon fill="#181818" points="844.5,244.7188,848.5,254.7188,852.5,244.7188,848.5,248.7188" style="stroke:#181818;stroke-width:1.0;"/><line style="stroke:#181818;stroke-width:1.0;" x1="167.5" x2="167.5" y1="301.793" y2="368.8125"/><line style="stroke:#181818;stroke-width:1.0;" x1="167.5" x2="840.25" y1="368.8125" y2="368.8125"/><polygon fill="#181818" points="830.25,364.8125,840.25,368.8125,830.25,372.8125,834.25,368.8125" style="stroke:#181818;stroke-width:1.0;"/><line style="stroke:#181818;stroke-width:1.0;" x1="814.75" x2="513" y1="198.7188" y2="198.7188"/><line style="stroke:#181818;stroke-width:1.0;" x1="513" x2="513" y1="198.7188" y2="220.7188"/><polygon fill="#181818" points="509,210.7188,513,220.7188,517,210.7188,513,214.7188" style="stroke:#181818;stroke-width:1.0;"/><line style="stroke:#181818;stroke-width:1.0;" x1="889.75" x2="1201.5" y1="198.7188" y2="198.7188"/><line style="stroke:#181818;stroke-width:1.0;" x1="1201.5" x2="1201.5" y1="198.7188" y2="220.7188"/><polygon fill="#181818" points="1197.5,210.7188,1201.5,220.7188,1205.5,210.7188,1201.5,214.7188" style="stroke:#181818;stroke-width:1.0;"/><line style="stroke:#181818;stroke-width:1.0;" x1="1201.5" x2="1201.5" y1="255.8125" y2="368.8125"/><line style="stroke:#181818;stroke-width:1.0;" x1="1201.5" x2="864.25" y1="368.8125" y2="368.8125"/><polygon fill="#181818" points="874.25,364.8125,864.25,368.8125,874.25,372.8125,870.25,368.8125" style="stroke:#181818;stroke-width:1.0;"/><line style="stroke:#181818;stroke-width:1.0;" x1="852.25" x2="852.25" y1="68.6094" y2="186.7188"/><polygon fill="#181818" points="848.25,176.7188,852.25,186.7188,856.25,176.7188,852.25,180.7188" style="stroke:#181818;stroke-width:1.0;"/><line style="stroke:#181818;stroke-width:1.0;" x1="812.25" x2="812.25" y1="485.0156" y2="503.5156"/><polygon fill="#181818" points="808.25,493.5156,812.25,503.5156,816.25,493.5156,812.25,497.5156" style="stroke:#181818;stroke-width:1.0;"/><line style="stroke:#181818;stroke-width:1.0;" x1="897.75" x2="897.75" y1="485.0156" y2="503.5156"/><polygon fill="#181818" points="893.75,493.5156,897.75,503.5156,901.75,493.5156,897.75,497.5156" style="stroke:#181818;stroke-width:1.0;"/><line style="stroke:#181818;stroke-width:1.0;" x1="812.25" x2="812.25" y1="538.6094" y2="558.6094"/><polygon fill="#181818" points="808.25,548.6094,812.25,558.6094,816.25,548.6094,812.25,552.6094" style="stroke:#181818;stroke-width:1.0;"/><line style="stroke:#181818;stroke-width:1.0;" x1="897.75" x2="897.75" y1="538.6094" y2="558.6094"/><polygon fill="#181818" points="893.75,548.6094,897.75,558.6094,901.75,548.6094,897.75,552.6094" style="stroke:#181818;stroke-width:1.0;"/><line style="stroke:#181818;stroke-width:1.0;" x1="852.25" x2="852.25" y1="463.5156" y2="483.5156"/><polygon fill="#181818" points="848.25,473.5156,852.25,483.5156,856.25,473.5156,852.25,477.5156" style="stroke:#181818;stroke-width:1.0;"/><line style="stroke:#181818;stroke-width:1.0;" x1="852.25" x2="852.25" y1="560.1094" y2="578.6094"/><polygon fill="#181818" points="848.25,568.6094,852.25,578.6094,856.25,568.6094,852.25,572.6094" style="stroke:#181818;stroke-width:1.0;"/><line style="stroke:#181818;stroke-width:1.0;" x1="852.25" x2="852.25" y1="613.7031" y2="633.7031"/><polygon fill="#181818" points="848.25,623.7031,852.25,633.7031,856.25,623.7031,852.25,627.7031" style="stroke:#181818;stroke-width:1.0;"/><line style="stroke:#181818;stroke-width:1.0;" x1="852.25" x2="852.25" y1="380.8125" y2="428.4219"/><polygon fill="#181818" points="848.25,418.4219,852.25,428.4219,856.25,418.4219,852.25,422.4219" style="stroke:#181818;stroke-width:1.0;"/><!--SRC=[dLF1Qjmm4BthAmQV6aZIGc_RKsW9B2Jf4hkK7cVjiIrgIqOQRmYba0zfVovVqXd9kzsb9T1UZ3Lwy-RDUpPR7WYkRg6a6ArtiAbkO1DyBKVuxCFNTl0FS54z1czCP0niZ6tXLQ6uEyzKd07tvAHIpjlHCbC3sqVOO237nPa1S8A2OBkUvR1k0M5Abn1JGvI2ahK-ZF1WkPVpyzEFDlZn-UadI0_RaM1B0Y2TfMg37mQeKHxecjp0Nk49AptOCeK_qES9dghtrz1ZL74AtvAi45KK-tI_I5Gzri7RDp1QDpF5bxZtl68Jpr5wvIPnGzsZwyGO8PTLBwL8eaEDCVAU_Am8wrveSPg2tr7yxUiNFGWCO5NotAWiAwOD4aocd2WaypwKQxWXt5dNfJtlYUVWtgNMan00Af4Q5x8QtGb5j9sxyFDXULrhRwk8TRBy3WU84zMsjI91CEB_BJhi22f5hlSW8OLI-7BlHo55rY7dcjNMIzXBhYd6Ww-HE8syJ6q7h-HrY2IMtFc_EA9H_gChaVsKmx2jCGlvLTFaRtY998twJ-ipitnCR5d_haA01NmxrPuCMZibMMHDWyqvhHRIepfWXzRbst2qYxfqrFXfQf3p_rBxXa26lnymHeePlfep80tNO5uVTAIm9TJQZwFgEsurvhinlm00]--></g></svg>