<?xml version="1.0" encoding="us-ascii" standalone="no"?><svg xmlns="http://www.w3.org/2000/svg" xmlns:xlink="http://www.w3.org/1999/xlink" contentStyleType="text/css" height="1116px" preserveAspectRatio="none" style="width:1512px;height:1116px;background:#FFFFFF;" version="1.1" viewBox="0 0 1512 1116" width="1512px" zoomAndPan="magnify"><defs/><g><text fill="#000000" font-family="sans-serif" font-size="14" font-weight="bold" lengthAdjust="spacing" textLength="425" x="542.25" y="34.5332">AM Session Attendance and Late Reporting Process- Vsware</text><ellipse cx="818.75" cy="58.6094" fill="#222222" rx="10" ry="10" style="stroke:#222222;stroke-width:1.0;"/><rect fill="#F1F1F1" height="35.0938" rx="12.5" ry="12.5" style="stroke:#181818;stroke-width:0.5;" width="139" x="749.25" y="88.6094"/><text fill="#000000" font-family="sans-serif" font-size="12" lengthAdjust="spacing" textLength="119" x="759.25" y="111.0664">The student is absent</text><rect fill="#F1F1F1" height="35.0938" rx="12.5" ry="12.5" style="stroke:#181818;stroke-width:0.5;" width="169" x="734.25" y="143.7031"/><text fill="#000000" font-family="sans-serif" font-size="12" lengthAdjust="spacing" textLength="149" x="744.25" y="166.1602">Create New AM rollcall ARF</text><polygon fill="#F1F1F1" points="763.25,198.7969,874.25,198.7969,886.25,212.6328,874.25,226.4688,763.25,226.4688,751.25,212.6328,763.25,198.7969" style="stroke:#181818;stroke-width:0.5;"/><text fill="#000000" font-family="sans-serif" font-size="11" lengthAdjust="spacing" textLength="108" x="763.25" y="210.2158">3. Student Late before</text><text fill="#000000" font-family="sans-serif" font-size="11" lengthAdjust="spacing" textLength="30" x="766.25" y="224.0518">rollcall</text><text fill="#000000" font-family="sans-serif" font-size="11" lengthAdjust="spacing" textLength="20" x="731.25" y="210.2158">Yes</text><text fill="#000000" font-family="sans-serif" font-size="11" lengthAdjust="spacing" textLength="13" x="886.25" y="210.2158">No</text><path d="M10,283.3877 L10,358.7939 A0,0 0 0 0 10,358.7939 L393,358.7939 A0,0 0 0 0 393,358.7939 L393,325.0908 L413,321.0908 L393,317.0908 L393,293.3877 L383,283.3877 L10,283.3877 A0,0 0 0 0 10,283.3877 " fill="#FEFFDD" style="stroke:#181818;stroke-width:0.5;"/><path d="M383,283.3877 L383,293.3877 L393,293.3877 L383,283.3877 " fill="#FEFFDD" style="stroke:#181818;stroke-width:0.5;"/><text fill="#000000" font-family="sans-serif" font-size="13" lengthAdjust="spacing" textLength="358" x="16" y="301.8828">If Late Note Requests are disabled for certain student, parents</text><text fill="#000000" font-family="sans-serif" font-size="13" lengthAdjust="spacing" textLength="268" x="16" y="318.2344">won&#8217;t receive Unexplained Late Notifications or</text><text fill="#000000" font-family="sans-serif" font-size="13" lengthAdjust="spacing" textLength="216" x="16" y="334.5859">LNR Notes. The Late Note tab should</text><text fill="#000000" font-family="sans-serif" font-size="13" lengthAdjust="spacing" textLength="184" x="16" y="350.9375">display the student as &#8216;skipped.</text><rect fill="#F1F1F1" height="35.0938" rx="12.5" ry="12.5" style="stroke:#181818;stroke-width:0.5;" width="145" x="413" y="303.5439"/><text fill="#000000" font-family="sans-serif" font-size="12" lengthAdjust="spacing" textLength="125" x="423" y="326.001">9. Student signs in DSI</text><rect fill="#F1F1F1" height="50.1875" rx="12.5" ry="12.5" style="stroke:#181818;stroke-width:0.5;" width="193" x="389" y="393.7939"/><text fill="#000000" font-family="sans-serif" font-size="12" lengthAdjust="spacing" textLength="173" x="399" y="416.251">10. Unexplained Late Writeback</text><text fill="#000000" font-family="sans-serif" font-size="12" lengthAdjust="spacing" textLength="65" x="399" y="431.3447">AM Session</text><rect fill="#F1F1F1" height="35.0938" rx="12.5" ry="12.5" style="stroke:#181818;stroke-width:0.5;" width="148" x="411.5" y="478.9814"/><text fill="#000000" font-family="sans-serif" font-size="12" lengthAdjust="spacing" textLength="128" x="421.5" y="501.4385">11. Send LNR to parent</text><polygon fill="#F1F1F1" points="429.5,549.0752,541.5,549.0752,553.5,561.0752,541.5,573.0752,429.5,573.0752,417.5,561.0752,429.5,549.0752" style="stroke:#181818;stroke-width:0.5;"/><text fill="#000000" font-family="sans-serif" font-size="11" lengthAdjust="spacing" textLength="112" x="429.5" y="565.5762">12. Parent submits LNR</text><text fill="#000000" font-family="sans-serif" font-size="11" lengthAdjust="spacing" textLength="53" x="364.5" y="558.6582">Authorised</text><text fill="#000000" font-family="sans-serif" font-size="11" lengthAdjust="spacing" textLength="64" x="553.5" y="558.6582">Unauthorised</text><rect fill="#F1F1F1" height="50.1875" rx="12.5" ry="12.5" style="stroke:#181818;stroke-width:0.5;" width="178" x="276.5" y="583.0752"/><text fill="#000000" font-family="sans-serif" font-size="12" lengthAdjust="spacing" textLength="158" x="286.5" y="605.5322">13. Explained Late Writeback</text><text fill="#000000" font-family="sans-serif" font-size="12" lengthAdjust="spacing" textLength="65" x="286.5" y="620.626">AM Session</text><ellipse cx="365.5" cy="664.2627" fill="none" rx="11" ry="11" style="stroke:#222222;stroke-width:1.0;"/><ellipse cx="365.5" cy="664.2627" fill="#222222" rx="6" ry="6" style="stroke:#222222;stroke-width:1.0;"/><rect fill="#F1F1F1" height="50.1875" rx="12.5" ry="12.5" style="stroke:#181818;stroke-width:0.5;" width="262" x="474.5" y="583.0752"/><text fill="#000000" font-family="sans-serif" font-size="12" lengthAdjust="spacing" textLength="242" x="484.5" y="605.5322">14. No writeback; unexplained late writeback</text><text fill="#000000" font-family="sans-serif" font-size="12" lengthAdjust="spacing" textLength="136" x="484.5" y="620.626">AM Session still remains</text><ellipse cx="605.5" cy="664.2627" fill="none" rx="11" ry="11" style="stroke:#222222;stroke-width:1.0;"/><ellipse cx="605.5" cy="664.2627" fill="#222222" rx="6" ry="6" style="stroke:#222222;stroke-width:1.0;"/><polygon fill="#F1F1F1" points="419.5,236.4688,551.5,236.4688,563.5,248.4688,551.5,260.4688,419.5,260.4688,407.5,248.4688,419.5,236.4688" style="stroke:#181818;stroke-width:0.5;"/><text fill="#000000" font-family="sans-serif" font-size="11" lengthAdjust="spacing" textLength="13" x="489.5" y="271.8877">No</text><text fill="#000000" font-family="sans-serif" font-size="11" lengthAdjust="spacing" textLength="132" x="419.5" y="252.9697">4. Parent submits Late Note</text><text fill="#000000" font-family="sans-serif" font-size="11" lengthAdjust="spacing" textLength="20" x="563.5" y="246.0518">Yes</text><rect fill="#F1F1F1" height="35.0938" rx="12.5" ry="12.5" style="stroke:#181818;stroke-width:0.5;" width="205" x="1049.5" y="236.4688"/><text fill="#000000" font-family="sans-serif" font-size="12" lengthAdjust="spacing" textLength="185" x="1059.5" y="258.9258">15. Send AM rollcall ARF to Parent</text><line style="stroke:#181818;stroke-width:1.5;" x1="848.5" x2="1415.5" y1="304.5635" y2="304.5635"/><rect fill="#F1F1F1" height="35.0938" rx="12.5" ry="12.5" style="stroke:#181818;stroke-width:0.5;" width="92" x="802.5" y="409.5752"/><text fill="#000000" font-family="sans-serif" font-size="12" lengthAdjust="spacing" textLength="72" x="812.5" y="432.0322">16. Absentee</text><ellipse cx="848.5" cy="489.6689" fill="none" rx="10" ry="10" style="stroke:#222222;stroke-width:1.5;"/><line style="stroke:#222222;stroke-width:2.5;" x1="842.3128" x2="854.6872" y1="483.4818" y2="495.8561"/><line style="stroke:#222222;stroke-width:2.5;" x1="854.6872" x2="842.3128" y1="483.4818" y2="495.8561"/><rect fill="#F1F1F1" height="35.0938" rx="12.5" ry="12.5" style="stroke:#181818;stroke-width:0.5;" width="64" x="1001.5" y="326.0635"/><text fill="#000000" font-family="sans-serif" font-size="12" lengthAdjust="spacing" textLength="44" x="1011.5" y="348.5205">17. Late</text><rect fill="#F1F1F1" height="50.1875" rx="12.5" ry="12.5" style="stroke:#181818;stroke-width:0.5;" width="202" x="932.5" y="445.0752"/><text fill="#000000" font-family="sans-serif" font-size="12" lengthAdjust="spacing" textLength="182" x="942.5" y="467.5322">23. AM rollcall ARF "Mark as Late"</text><text fill="#000000" font-family="sans-serif" font-size="12" lengthAdjust="spacing" textLength="156" x="942.5" y="482.626">note continue in PM Session</text><ellipse cx="1033.5" cy="541.2627" fill="none" rx="11" ry="11" style="stroke:#222222;stroke-width:1.0;"/><ellipse cx="1033.5" cy="541.2627" fill="#222222" rx="6" ry="6" style="stroke:#222222;stroke-width:1.0;"/><polygon fill="#F1F1F1" points="952,396.1572,1115,396.1572,1127,408.1572,1115,420.1572,952,420.1572,940,408.1572,952,396.1572" style="stroke:#181818;stroke-width:0.5;"/><text fill="#000000" font-family="sans-serif" font-size="11" lengthAdjust="spacing" textLength="13" x="1037.5" y="431.5762">No</text><text fill="#000000" font-family="sans-serif" font-size="11" lengthAdjust="spacing" textLength="163" x="952" y="412.6582">18. Student arrived in AM session</text><text fill="#000000" font-family="sans-serif" font-size="11" lengthAdjust="spacing" textLength="20" x="1127" y="405.7402">Yes</text><rect fill="#F1F1F1" height="35.0938" rx="12.5" ry="12.5" style="stroke:#181818;stroke-width:0.5;" width="117" x="1184.5" y="409.5752"/><text fill="#000000" font-family="sans-serif" font-size="12" lengthAdjust="spacing" textLength="97" x="1194.5" y="432.0322">24. Please Check</text><ellipse cx="1243" cy="489.6689" fill="none" rx="10" ry="10" style="stroke:#222222;stroke-width:1.5;"/><line style="stroke:#222222;stroke-width:2.5;" x1="1236.8128" x2="1249.1872" y1="483.4818" y2="495.8561"/><line style="stroke:#222222;stroke-width:2.5;" x1="1249.1872" x2="1236.8128" y1="483.4818" y2="495.8561"/><rect fill="#F1F1F1" height="35.0938" rx="12.5" ry="12.5" style="stroke:#181818;stroke-width:0.5;" width="170" x="1330.5" y="365.9814"/><text fill="#000000" font-family="sans-serif" font-size="12" lengthAdjust="spacing" textLength="150" x="1340.5" y="388.4385">25. Pending AM rollcall ARF</text><rect fill="#F1F1F1" height="50.1875" rx="12.5" ry="12.5" style="stroke:#181818;stroke-width:0.5;" width="172" x="1329.5" y="436.0752"/><text fill="#000000" font-family="sans-serif" font-size="12" lengthAdjust="spacing" textLength="152" x="1339.5" y="458.5322">26. Parent not submit ARF it</text><text fill="#000000" font-family="sans-serif" font-size="12" lengthAdjust="spacing" textLength="136" x="1339.5" y="473.626">continues to PM Session</text><ellipse cx="1415.5" cy="532.2627" fill="none" rx="11" ry="11" style="stroke:#222222;stroke-width:1.0;"/><ellipse cx="1415.5" cy="532.2627" fill="#222222" rx="6" ry="6" style="stroke:#222222;stroke-width:1.0;"/><line style="stroke:#181818;stroke-width:1.5;" x1="1033.5" x2="1152" y1="603.1807" y2="603.1807"/><polygon fill="#F1F1F1" points="818.75,703.2627,830.75,715.2627,818.75,727.2627,806.75,715.2627,818.75,703.2627" style="stroke:#181818;stroke-width:0.5;"/><rect fill="none" height="297.9453" style="stroke:#000000;stroke-width:1.5;" width="815.5" x="607.25" y="737.2627"/><path d="M639.25,737.2627 L639.25,747.8721 L629.25,757.8721 L607.25,757.8721 " fill="none" style="stroke:#000000;stroke-width:1.5;"/><text fill="#000000" font-family="sans-serif" font-size="14" lengthAdjust="spacing" textLength="22" x="610.25" y="752.7959">DSI</text><path d="M878.75,767.8721 L878.75,826.9268 L1412.75,826.9268 L1412.75,777.8721 L1402.75,767.8721 L878.75,767.8721 " fill="#FEFFDD" style="stroke:#181818;stroke-width:0.5;"/><path d="M1402.75,767.8721 L1402.75,777.8721 L1412.75,777.8721 L1402.75,767.8721 " fill="#FEFFDD" style="stroke:#181818;stroke-width:0.5;"/><text fill="#000000" font-family="sans-serif" font-size="13" lengthAdjust="spacing" textLength="145" x="884.75" y="786.3672">Delay Writeback Setting:</text><text fill="#000000" font-family="sans-serif" font-size="13" lengthAdjust="spacing" textLength="399" x="884.75" y="802.7188">When enabled, writeback occurs only after the configured delay time.</text><text fill="#000000" font-family="sans-serif" font-size="13" lengthAdjust="spacing" textLength="513" x="884.75" y="819.0703">If this setting is not configured, writeback happens at the default AM or PM session time.</text><polygon fill="#F1F1F1" points="770.75,826.9268,866.75,826.9268,878.75,838.9268,866.75,850.9268,770.75,850.9268,758.75,838.9268,770.75,826.9268" style="stroke:#181818;stroke-width:0.5;"/><text fill="#000000" font-family="sans-serif" font-size="11" lengthAdjust="spacing" textLength="96" x="770.75" y="843.4277">Student signs in DSI</text><text fill="#000000" font-family="sans-serif" font-size="11" lengthAdjust="spacing" textLength="20" x="738.75" y="836.5098">Yes</text><text fill="#000000" font-family="sans-serif" font-size="11" lengthAdjust="spacing" textLength="13" x="878.75" y="836.5098">No</text><rect fill="#F1F1F1" height="50.1875" rx="12.5" ry="12.5" style="stroke:#181818;stroke-width:0.5;" width="158" x="627.25" y="860.9268"/><text fill="#000000" font-family="sans-serif" font-size="12" lengthAdjust="spacing" textLength="138" x="637.25" y="883.3838">Explained Late Writeback</text><text fill="#000000" font-family="sans-serif" font-size="12" lengthAdjust="spacing" textLength="65" x="640.25" y="898.4775">AM Session</text><ellipse cx="706.25" cy="957.1143" fill="none" rx="11" ry="11" style="stroke:#222222;stroke-width:1.0;"/><ellipse cx="706.25" cy="957.1143" fill="#222222" rx="6" ry="6" style="stroke:#222222;stroke-width:1.0;"/><rect fill="#F1F1F1" height="35.0938" rx="12.5" ry="12.5" style="stroke:#181818;stroke-width:0.5;" width="252" x="805.25" y="860.9268"/><text fill="#000000" font-family="sans-serif" font-size="12" lengthAdjust="spacing" textLength="232" x="815.25" y="883.3838">Staff performs "Mark as Late DSI Manually"</text><rect fill="#F1F1F1" height="50.1875" rx="12.5" ry="12.5" style="stroke:#181818;stroke-width:0.5;" width="158" x="852.25" y="931.0205"/><text fill="#000000" font-family="sans-serif" font-size="12" lengthAdjust="spacing" textLength="138" x="862.25" y="953.4775">Explained Late Writeback</text><text fill="#000000" font-family="sans-serif" font-size="12" lengthAdjust="spacing" textLength="65" x="865.25" y="968.5713">AM Session</text><ellipse cx="931.25" cy="1012.208" fill="none" rx="11" ry="11" style="stroke:#222222;stroke-width:1.0;"/><ellipse cx="931.25" cy="1012.208" fill="#222222" rx="6" ry="6" style="stroke:#222222;stroke-width:1.0;"/><path d="M379.75,1045.208 L379.75,1104.2627 A0,0 0 0 0 379.75,1104.2627 L787.75,1104.2627 A0,0 0 0 0 787.75,1104.2627 L787.75,1078.7354 L807.75,1074.7354 L787.75,1070.7354 L787.75,1055.208 L777.75,1045.208 L379.75,1045.208 A0,0 0 0 0 379.75,1045.208 " fill="#FEFFDD" style="stroke:#181818;stroke-width:0.5;"/><path d="M777.75,1045.208 L777.75,1055.208 L787.75,1055.208 L777.75,1045.208 " fill="#FEFFDD" style="stroke:#181818;stroke-width:0.5;"/><text fill="#000000" font-family="sans-serif" font-size="13" lengthAdjust="spacing" textLength="387" x="385.75" y="1063.7031">At 4 PM, the system rechecks all "Success" or "NA" Late records.</text><text fill="#000000" font-family="sans-serif" font-size="13" lengthAdjust="spacing" textLength="368" x="385.75" y="1080.0547">If any student still appears as Unexplained ABS in any session,</text><text fill="#000000" font-family="sans-serif" font-size="13" lengthAdjust="spacing" textLength="302" x="385.75" y="1096.4063">the system will trigger a writeback for those records.</text><ellipse cx="818.75" cy="1074.7354" fill="none" rx="11" ry="11" style="stroke:#222222;stroke-width:1.0;"/><ellipse cx="818.75" cy="1074.7354" fill="#222222" rx="6" ry="6" style="stroke:#222222;stroke-width:1.0;"/><line style="stroke:#181818;stroke-width:1.0;" x1="818.75" x2="818.75" y1="68.6094" y2="88.6094"/><polygon fill="#181818" points="814.75,78.6094,818.75,88.6094,822.75,78.6094,818.75,82.6094" style="stroke:#181818;stroke-width:1.0;"/><line style="stroke:#181818;stroke-width:1.0;" x1="818.75" x2="818.75" y1="123.7031" y2="143.7031"/><polygon fill="#181818" points="814.75,133.7031,818.75,143.7031,822.75,133.7031,818.75,137.7031" style="stroke:#181818;stroke-width:1.0;"/><line style="stroke:#181818;stroke-width:1.0;" x1="485.5" x2="485.5" y1="338.6377" y2="393.7939"/><polygon fill="#181818" points="481.5,383.7939,485.5,393.7939,489.5,383.7939,485.5,387.7939" style="stroke:#181818;stroke-width:1.0;"/><line style="stroke:#181818;stroke-width:1.0;" x1="485.5" x2="485.5" y1="443.9814" y2="478.9814"/><polygon fill="#181818" points="481.5,468.9814,485.5,478.9814,489.5,468.9814,485.5,472.9814" style="stroke:#181818;stroke-width:1.0;"/><line style="stroke:#181818;stroke-width:1.0;" x1="365.5" x2="365.5" y1="633.2627" y2="653.2627"/><polygon fill="#181818" points="361.5,643.2627,365.5,653.2627,369.5,643.2627,365.5,647.2627" style="stroke:#181818;stroke-width:1.0;"/><line style="stroke:#181818;stroke-width:1.0;" x1="605.5" x2="605.5" y1="633.2627" y2="653.2627"/><polygon fill="#181818" points="601.5,643.2627,605.5,653.2627,609.5,643.2627,605.5,647.2627" style="stroke:#181818;stroke-width:1.0;"/><line style="stroke:#181818;stroke-width:1.0;" x1="417.5" x2="365.5" y1="561.0752" y2="561.0752"/><line style="stroke:#181818;stroke-width:1.0;" x1="365.5" x2="365.5" y1="561.0752" y2="583.0752"/><polygon fill="#181818" points="361.5,573.0752,365.5,583.0752,369.5,573.0752,365.5,577.0752" style="stroke:#181818;stroke-width:1.0;"/><line style="stroke:#181818;stroke-width:1.0;" x1="553.5" x2="605.5" y1="561.0752" y2="561.0752"/><line style="stroke:#181818;stroke-width:1.0;" x1="605.5" x2="605.5" y1="561.0752" y2="583.0752"/><polygon fill="#181818" points="601.5,573.0752,605.5,583.0752,609.5,573.0752,605.5,577.0752" style="stroke:#181818;stroke-width:1.0;"/><line style="stroke:#181818;stroke-width:1.0;" x1="485.5" x2="485.5" y1="514.0752" y2="549.0752"/><polygon fill="#181818" points="481.5,539.0752,485.5,549.0752,489.5,539.0752,485.5,543.0752" style="stroke:#181818;stroke-width:1.0;"/><line style="stroke:#181818;stroke-width:1.0;" x1="485.5" x2="485.5" y1="260.4688" y2="303.5439"/><polygon fill="#181818" points="481.5,293.5439,485.5,303.5439,489.5,293.5439,485.5,297.5439" style="stroke:#181818;stroke-width:1.0;"/><line style="stroke:#181818;stroke-width:1.0;" x1="563.5" x2="756.5" y1="248.4688" y2="248.4688"/><polygon fill="#181818" points="752.5,485.8252,756.5,495.8252,760.5,485.8252,756.5,489.8252" style="stroke:#181818;stroke-width:1.0;"/><line style="stroke:#181818;stroke-width:1.0;" x1="756.5" x2="756.5" y1="248.4688" y2="715.2627"/><line style="stroke:#181818;stroke-width:1.0;" x1="756.5" x2="806.75" y1="715.2627" y2="715.2627"/><polygon fill="#181818" points="796.75,711.2627,806.75,715.2627,796.75,719.2627,800.75,715.2627" style="stroke:#181818;stroke-width:1.0;"/><line style="stroke:#181818;stroke-width:1.0;" x1="848.5" x2="848.5" y1="444.6689" y2="479.6689"/><polygon fill="#181818" points="844.5,469.6689,848.5,479.6689,852.5,469.6689,848.5,473.6689" style="stroke:#181818;stroke-width:1.0;"/><line style="stroke:#181818;stroke-width:1.0;" x1="1033.5" x2="1033.5" y1="495.2627" y2="530.2627"/><polygon fill="#181818" points="1029.5,520.2627,1033.5,530.2627,1037.5,520.2627,1033.5,524.2627" style="stroke:#181818;stroke-width:1.0;"/><line style="stroke:#181818;stroke-width:1.0;" x1="1033.5" x2="1033.5" y1="420.1572" y2="445.0752"/><polygon fill="#181818" points="1029.5,435.0752,1033.5,445.0752,1037.5,435.0752,1033.5,439.0752" style="stroke:#181818;stroke-width:1.0;"/><line style="stroke:#181818;stroke-width:1.0;" x1="1127" x2="1144.5" y1="408.1572" y2="408.1572"/><polygon fill="#181818" points="1140.5,485.6689,1144.5,495.6689,1148.5,485.6689,1144.5,489.6689" style="stroke:#181818;stroke-width:1.0;"/><line style="stroke:#181818;stroke-width:1.0;" x1="1144.5" x2="1144.5" y1="408.1572" y2="583.1807"/><line style="stroke:#181818;stroke-width:1.0;" x1="1144.5" x2="1033.5" y1="583.1807" y2="583.1807"/><line style="stroke:#181818;stroke-width:1.0;" x1="1033.5" x2="1033.5" y1="583.1807" y2="603.1807"/><polygon fill="#181818" points="1029.5,593.1807,1033.5,603.1807,1037.5,593.1807,1033.5,597.1807" style="stroke:#181818;stroke-width:1.0;"/><line style="stroke:#181818;stroke-width:1.0;" x1="1033.5" x2="1033.5" y1="361.1572" y2="396.1572"/><polygon fill="#181818" points="1029.5,386.1572,1033.5,396.1572,1037.5,386.1572,1033.5,390.1572" style="stroke:#181818;stroke-width:1.0;"/><line style="stroke:#181818;stroke-width:1.0;" x1="1243" x2="1243" y1="444.6689" y2="479.6689"/><polygon fill="#181818" points="1239,469.6689,1243,479.6689,1247,469.6689,1243,473.6689" style="stroke:#181818;stroke-width:1.0;"/><line style="stroke:#181818;stroke-width:1.0;" x1="1415.5" x2="1415.5" y1="401.0752" y2="436.0752"/><polygon fill="#181818" points="1411.5,426.0752,1415.5,436.0752,1419.5,426.0752,1415.5,430.0752" style="stroke:#181818;stroke-width:1.0;"/><line style="stroke:#181818;stroke-width:1.0;" x1="1415.5" x2="1415.5" y1="486.2627" y2="521.2627"/><polygon fill="#181818" points="1411.5,511.2627,1415.5,521.2627,1419.5,511.2627,1415.5,515.2627" style="stroke:#181818;stroke-width:1.0;"/><line style="stroke:#181818;stroke-width:1.0;" x1="848.5" x2="848.5" y1="306.0635" y2="409.5752"/><polygon fill="#181818" points="844.5,399.5752,848.5,409.5752,852.5,399.5752,848.5,403.5752" style="stroke:#181818;stroke-width:1.0;"/><line style="stroke:#181818;stroke-width:1.0;" x1="1033.5" x2="1033.5" y1="306.0635" y2="326.0635"/><polygon fill="#181818" points="1029.5,316.0635,1033.5,326.0635,1037.5,316.0635,1033.5,320.0635" style="stroke:#181818;stroke-width:1.0;"/><line style="stroke:#181818;stroke-width:1.0;" x1="1243" x2="1243" y1="306.0635" y2="409.5752"/><polygon fill="#181818" points="1239,399.5752,1243,409.5752,1247,399.5752,1243,403.5752" style="stroke:#181818;stroke-width:1.0;"/><line style="stroke:#181818;stroke-width:1.0;" x1="1415.5" x2="1415.5" y1="306.0635" y2="365.9814"/><polygon fill="#181818" points="1411.5,355.9814,1415.5,365.9814,1419.5,355.9814,1415.5,359.9814" style="stroke:#181818;stroke-width:1.0;"/><line style="stroke:#181818;stroke-width:1.0;" x1="1152" x2="1152" y1="271.5625" y2="304.5635"/><polygon fill="#181818" points="1148,294.5635,1152,304.5635,1156,294.5635,1152,298.5635" style="stroke:#181818;stroke-width:1.0;"/><line style="stroke:#181818;stroke-width:1.0;" x1="751.25" x2="485.5" y1="212.6328" y2="212.6328"/><line style="stroke:#181818;stroke-width:1.0;" x1="485.5" x2="485.5" y1="212.6328" y2="236.4688"/><polygon fill="#181818" points="481.5,226.4688,485.5,236.4688,489.5,226.4688,485.5,230.4688" style="stroke:#181818;stroke-width:1.0;"/><line style="stroke:#181818;stroke-width:1.0;" x1="886.25" x2="1152" y1="212.6328" y2="212.6328"/><line style="stroke:#181818;stroke-width:1.0;" x1="1152" x2="1152" y1="212.6328" y2="236.4688"/><polygon fill="#181818" points="1148,226.4688,1152,236.4688,1156,226.4688,1152,230.4688" style="stroke:#181818;stroke-width:1.0;"/><line style="stroke:#181818;stroke-width:1.0;" x1="1152" x2="1152" y1="604.6807" y2="715.2627"/><line style="stroke:#181818;stroke-width:1.0;" x1="1152" x2="830.75" y1="715.2627" y2="715.2627"/><polygon fill="#181818" points="840.75,711.2627,830.75,715.2627,840.75,719.2627,836.75,715.2627" style="stroke:#181818;stroke-width:1.0;"/><line style="stroke:#181818;stroke-width:1.0;" x1="818.75" x2="818.75" y1="178.7969" y2="198.7969"/><polygon fill="#181818" points="814.75,188.7969,818.75,198.7969,822.75,188.7969,818.75,192.7969" style="stroke:#181818;stroke-width:1.0;"/><line style="stroke:#181818;stroke-width:1.0;" x1="706.25" x2="706.25" y1="911.1143" y2="946.1143"/><polygon fill="#181818" points="702.25,936.1143,706.25,946.1143,710.25,936.1143,706.25,940.1143" style="stroke:#181818;stroke-width:1.0;"/><line style="stroke:#181818;stroke-width:1.0;" x1="931.25" x2="931.25" y1="896.0205" y2="931.0205"/><polygon fill="#181818" points="927.25,921.0205,931.25,931.0205,935.25,921.0205,931.25,925.0205" style="stroke:#181818;stroke-width:1.0;"/><line style="stroke:#181818;stroke-width:1.0;" x1="931.25" x2="931.25" y1="981.208" y2="1001.208"/><polygon fill="#181818" points="927.25,991.208,931.25,1001.208,935.25,991.208,931.25,995.208" style="stroke:#181818;stroke-width:1.0;"/><line style="stroke:#181818;stroke-width:1.0;" x1="758.75" x2="706.25" y1="838.9268" y2="838.9268"/><line style="stroke:#181818;stroke-width:1.0;" x1="706.25" x2="706.25" y1="838.9268" y2="860.9268"/><polygon fill="#181818" points="702.25,850.9268,706.25,860.9268,710.25,850.9268,706.25,854.9268" style="stroke:#181818;stroke-width:1.0;"/><line style="stroke:#181818;stroke-width:1.0;" x1="878.75" x2="931.25" y1="838.9268" y2="838.9268"/><line style="stroke:#181818;stroke-width:1.0;" x1="931.25" x2="931.25" y1="838.9268" y2="860.9268"/><polygon fill="#181818" points="927.25,850.9268,931.25,860.9268,935.25,850.9268,931.25,854.9268" style="stroke:#181818;stroke-width:1.0;"/><line style="stroke:#181818;stroke-width:1.0;" x1="818.75" x2="818.75" y1="727.2627" y2="826.9268"/><polygon fill="#181818" points="814.75,816.9268,818.75,826.9268,822.75,816.9268,818.75,820.9268" style="stroke:#181818;stroke-width:1.0;"/><!--SRC=[hLNRQjj047tVhnZqv41gQZUzsKzkqa8WCSPk6WfzMKiZQucyKdT7TKqfv3FQtykNT7Obh-KBIGlLYoqqSsRENCwGeXnXT0qpj5OL6aP4g1EfOmIf4xYIX335iZ2az08cfeZPy1byiYjfK0XBqf0OVCmGB5K9QW9bGSuj_nkAmRb11p36bOjXYZoFPPx3QFfXA5GAdHTTc3LkFj8Sqy8WVD71zWGeGmsTpsXF1F3ZtCwwCE7mx6Mh-LAHhRt71U76VbpKveEtsn1MBRG5fU5YTZdqNpLxG8uf-RVBT8l3fBzMQ1cQ0q6Yh9pdc02d1p4QaepI43w5qkTYmOEi2lrm_vl0O8pg6yADnkzbplQO17ILgbWIbzi2utctg_7KnxLTSCNSva5o3ZOhgZof3JaLXbixcg7aqiB3_IzxfyeIawutuoPwTdKHUi-xXudS6aKub_5T3RmTWc7ZrEFIEHoN6nKDpQ48RUZr3_imdcuwCAeeAuoocDITg36vu-yVJUDOAkwnL9GrizmYT6wqF8hFep4kOBN174BLefsxUAl7ud4OnGDgSCaUzbXqdQXKRB88KoasNqJz8OnVxsLJnBtvTmMTD0KDGSfSKNYhtLzrOUIt2N6uyuanTnr1BZZdFVVNNL_aNLULTdfljciXZU51JTnYS9AsBiJ1teMup2_G2u7wtDTzXj6rD7TkDbq64Umu-CMB2ysgKg6BF3dIyb3uVUA-0qzGxpkHo55oDyupv4duz-hrkNSJ5uwLxq2-TYrVXKrWPiqs-2BmpuxfXhFr0_0OwLQgpMGq4yPxICgf1qGiP17y20jvJEYEDdBmz0x-pHAsns0m8vccKA9XZLpQtUwxHE1QwehBjuw6_p4FNvAVGlY1CcgHaRX0fuzRg1cIEru3SUiAWTeh-MbB1ueuhWnBiSxN85D2uyMLEvMgHMKujyGZabfYL_2He8nldArHtRbpBTzQjv4poOhChP3a8HDCPPMJeyIwFmdBra07pHQUdwSaHWHdR7fQ2_xQ4YxTRN4ZpRWyZT6iYjrHZXncD1v5TIdPfZ29zGbBlGwteXOubvTapjoVzbqOlPkviV7sTMgdeXLtvLo9gxpW6iaMJtSMMOrjA-o6p1y0]--></g></svg>