<?xml version="1.0" encoding="us-ascii" standalone="no"?><svg xmlns="http://www.w3.org/2000/svg" xmlns:xlink="http://www.w3.org/1999/xlink" contentStyleType="text/css" height="932px" preserveAspectRatio="none" style="width:2339px;height:932px;background:#FFFFFF;" version="1.1" viewBox="0 0 2339 932" width="2339px" zoomAndPan="magnify"><defs/><g><text fill="#000000" font-family="sans-serif" font-size="14" font-weight="bold" lengthAdjust="spacing" textLength="465" x="935.5" y="34.5332">PM Session Attendance and Absence Reporting Workflow- VSware</text><ellipse cx="1146" cy="58.6094" fill="#222222" rx="10" ry="10" style="stroke:#222222;stroke-width:1.0;"/><rect fill="#F1F1F1" height="35.0938" rx="12.5" ry="12.5" style="stroke:#181818;stroke-width:0.5;" width="143" x="1074.5" y="88.6094"/><text fill="#000000" font-family="sans-serif" font-size="12" lengthAdjust="spacing" textLength="123" x="1084.5" y="111.0664">1. PM Session Rollcall</text><path d="M1264,134.8984 L1264,157.25 L1244,161.25 L1264,165.25 L1264,187.6016 A0,0 0 0 0 1264,187.6016 L1466,187.6016 A0,0 0 0 0 1466,187.6016 L1466,144.8984 L1456,134.8984 L1264,134.8984 A0,0 0 0 0 1264,134.8984 " fill="#FEFFDD" style="stroke:#181818;stroke-width:0.5;"/><path d="M1456,134.8984 L1456,144.8984 L1466,144.8984 L1456,134.8984 " fill="#FEFFDD" style="stroke:#181818;stroke-width:0.5;"/><text fill="#000000" font-family="sans-serif" font-size="13" lengthAdjust="spacing" textLength="181" x="1270" y="153.3936">Student is Present PM session</text><line style="stroke:#181818;stroke-width:1.0;" x1="1264" x2="1466" y1="161.25" y2="161.25"/><text fill="#000000" font-family="sans-serif" font-size="13" lengthAdjust="spacing" textLength="103" x="1270" y="179.7451">no action required</text><rect fill="#F1F1F1" height="35.0938" rx="12.5" ry="12.5" style="stroke:#181818;stroke-width:0.5;" width="196" x="1048" y="143.7031"/><text fill="#000000" font-family="sans-serif" font-size="12" lengthAdjust="spacing" textLength="176" x="1058" y="166.1602">2. Fetch PM Session Attendance</text><rect fill="#F1F1F1" height="35.0938" rx="12.5" ry="12.5" style="stroke:#181818;stroke-width:0.5;" width="198" x="1047" y="207.6016"/><text fill="#000000" font-family="sans-serif" font-size="12" lengthAdjust="spacing" textLength="178" x="1057" y="230.0586">3. Student Absent in PM Session</text><path d="M597.5,252.6953 L597.5,328.1016 A0,0 0 0 0 597.5,328.1016 L975.5,328.1016 A0,0 0 0 0 975.5,328.1016 L975.5,294.3984 L995.5,290.3984 L975.5,286.3984 L975.5,262.6953 L965.5,252.6953 L597.5,252.6953 A0,0 0 0 0 597.5,252.6953 " fill="#FEFFDD" style="stroke:#181818;stroke-width:0.5;"/><path d="M965.5,252.6953 L965.5,262.6953 L975.5,262.6953 L965.5,252.6953 " fill="#FEFFDD" style="stroke:#181818;stroke-width:0.5;"/><text fill="#000000" font-family="sans-serif" font-size="13" lengthAdjust="spacing" textLength="353" x="603.5" y="271.1904">If Absence Requests are disabled for certain student, parents</text><text fill="#000000" font-family="sans-serif" font-size="13" lengthAdjust="spacing" textLength="294" x="603.5" y="287.542">won&#8217;t receive Unexplained Absence Notifications or</text><text fill="#000000" font-family="sans-serif" font-size="13" lengthAdjust="spacing" textLength="312" x="603.5" y="303.8936">ARF Notes. The absentee tab and ARF screen should</text><text fill="#000000" font-family="sans-serif" font-size="13" lengthAdjust="spacing" textLength="184" x="603.5" y="320.2451">display the student as &#8216;skipped.</text><rect fill="#F1F1F1" height="35.0938" rx="12.5" ry="12.5" style="stroke:#181818;stroke-width:0.5;" width="301" x="995.5" y="272.8516"/><text fill="#000000" font-family="sans-serif" font-size="12" lengthAdjust="spacing" textLength="281" x="1005.5" y="295.3086">4. Retrieve unexplained absent student PM session</text><rect fill="#F1F1F1" height="35.0938" rx="12.5" ry="12.5" style="stroke:#181818;stroke-width:0.5;" width="158" x="1067" y="348.1016"/><text fill="#000000" font-family="sans-serif" font-size="12" lengthAdjust="spacing" textLength="138" x="1077" y="370.5586">4. Create PM roll call ARF</text><line style="stroke:#181818;stroke-width:1.5;" x1="657.5" x2="1852.5" y1="403.1953" y2="403.1953"/><rect fill="#F1F1F1" height="35.0938" rx="12.5" ry="12.5" style="stroke:#181818;stroke-width:0.5;" width="186" x="564.5" y="486.5117"/><text fill="#000000" font-family="sans-serif" font-size="12" lengthAdjust="spacing" textLength="166" x="574.5" y="508.9688">5. Review AM Absence Record</text><line style="stroke:#181818;stroke-width:1.5;" x1="144.5" x2="805" y1="556.6055" y2="556.6055"/><rect fill="#F1F1F1" height="35.0938" rx="12.5" ry="12.5" style="stroke:#181818;stroke-width:0.5;" width="267" x="11" y="633.9023"/><text fill="#000000" font-family="sans-serif" font-size="12" lengthAdjust="spacing" textLength="247" x="21" y="656.3594">5. Parent already submitted AM absence note</text><rect fill="#F1F1F1" height="35.0938" rx="12.5" ry="12.5" style="stroke:#181818;stroke-width:0.5;" width="239" x="25" y="703.9961"/><text fill="#000000" font-family="sans-serif" font-size="12" lengthAdjust="spacing" textLength="219" x="35" y="726.4531">6. Auto writeback explained PM absence</text><ellipse cx="144.5" cy="785.0898" fill="none" rx="11" ry="11" style="stroke:#222222;stroke-width:1.0;"/><ellipse cx="144.5" cy="785.0898" fill="#222222" rx="6" ry="6" style="stroke:#222222;stroke-width:1.0;"/><rect fill="#F1F1F1" height="35.0938" rx="12.5" ry="12.5" style="stroke:#181818;stroke-width:0.5;" width="184" x="713" y="578.1055"/><text fill="#000000" font-family="sans-serif" font-size="12" lengthAdjust="spacing" textLength="164" x="723" y="600.5625">7. AM rollcall ARF already sent</text><line style="stroke:#181818;stroke-width:1.5;" x1="441" x2="941" y1="648.1992" y2="648.1992"/><rect fill="#F1F1F1" height="35.0938" rx="12.5" ry="12.5" style="stroke:#181818;stroke-width:0.5;" width="85" x="398.5" y="669.6992"/><text fill="#000000" font-family="sans-serif" font-size="12" lengthAdjust="spacing" textLength="65" x="408.5" y="692.1563">8. Absentee</text><rect fill="#F1F1F1" height="35.0938" rx="12.5" ry="12.5" style="stroke:#181818;stroke-width:0.5;" width="306" x="288" y="739.793"/><text fill="#000000" font-family="sans-serif" font-size="12" lengthAdjust="spacing" textLength="286" x="298" y="762.25">9. Writeback explained for both AM and PM Sessions</text><ellipse cx="441" cy="820.8867" fill="none" rx="11" ry="11" style="stroke:#222222;stroke-width:1.0;"/><ellipse cx="441" cy="820.8867" fill="#222222" rx="6" ry="6" style="stroke:#222222;stroke-width:1.0;"/><rect fill="#F1F1F1" height="35.0938" rx="12.5" ry="12.5" style="stroke:#181818;stroke-width:0.5;" width="64" x="622" y="705.7461"/><text fill="#000000" font-family="sans-serif" font-size="12" lengthAdjust="spacing" textLength="44" x="632" y="728.2031">10. Late</text><ellipse cx="654" cy="785.8398" fill="none" rx="10" ry="10" style="stroke:#222222;stroke-width:1.5;"/><line style="stroke:#222222;stroke-width:2.5;" x1="647.8128" x2="660.1872" y1="779.6527" y2="792.027"/><line style="stroke:#222222;stroke-width:2.5;" x1="660.1872" x2="647.8128" y1="779.6527" y2="792.027"/><rect fill="#F1F1F1" height="35.0938" rx="12.5" ry="12.5" style="stroke:#181818;stroke-width:0.5;" width="114" x="714" y="705.7461"/><text fill="#000000" font-family="sans-serif" font-size="12" lengthAdjust="spacing" textLength="94" x="724" y="728.2031">11. Please check</text><ellipse cx="771" cy="785.8398" fill="none" rx="10" ry="10" style="stroke:#222222;stroke-width:1.5;"/><line style="stroke:#222222;stroke-width:2.5;" x1="764.8128" x2="777.1872" y1="779.6527" y2="792.027"/><line style="stroke:#222222;stroke-width:2.5;" x1="777.1872" x2="764.8128" y1="779.6527" y2="792.027"/><rect fill="#F1F1F1" height="35.0938" rx="12.5" ry="12.5" style="stroke:#181818;stroke-width:0.5;" width="170" x="856" y="669.8672"/><text fill="#000000" font-family="sans-serif" font-size="12" lengthAdjust="spacing" textLength="150" x="866" y="692.3242">12. Pending AM rollcall ARF</text><path d="M972,739.9609 L972,781.8398 L952,785.8398 L972,789.8398 L972,831.7188 A0,0 0 0 0 972,831.7188 L1322,831.7188 A0,0 0 0 0 1322,831.7188 L1322,749.9609 L1312,739.9609 L972,739.9609 A0,0 0 0 0 972,739.9609 " fill="#FEFFDD" style="stroke:#181818;stroke-width:0.5;"/><path d="M1312,739.9609 L1312,749.9609 L1322,749.9609 L1312,739.9609 " fill="#FEFFDD" style="stroke:#181818;stroke-width:0.5;"/><text fill="#000000" font-family="sans-serif" font-size="13" lengthAdjust="spacing" textLength="113" x="978" y="758.4561">Quick ARF Setting:</text><text fill="#000000" font-family="sans-serif" font-size="13" lengthAdjust="spacing" textLength="329" x="978" y="774.8076">When enabled, a Pending ARF pop-up appears whenever</text><text fill="#000000" font-family="sans-serif" font-size="13" lengthAdjust="spacing" textLength="213" x="978" y="791.1592">a parent tries to submit an absentee.</text><text fill="#000000" font-family="sans-serif" font-size="13" lengthAdjust="spacing" textLength="242" x="978" y="807.5107">The system also displays error messages</text><text fill="#000000" font-family="sans-serif" font-size="13" lengthAdjust="spacing" textLength="146" x="978" y="823.8623">in "Late" and "PTL Note".</text><ellipse cx="941" cy="785.8398" fill="none" rx="11" ry="11" style="stroke:#222222;stroke-width:1.0;"/><ellipse cx="941" cy="785.8398" fill="#222222" rx="6" ry="6" style="stroke:#222222;stroke-width:1.0;"/><rect fill="#F1F1F1" height="35.0938" rx="12.5" ry="12.5" style="stroke:#181818;stroke-width:0.5;" width="167" x="1769" y="423.1953"/><text fill="#000000" font-family="sans-serif" font-size="12" lengthAdjust="spacing" textLength="147" x="1779" y="445.6523">13. Send PM ARF to Parent</text><polygon fill="#F1F1F1" points="1811,478.2891,1894,478.2891,1906,490.2891,1894,502.2891,1811,502.2891,1799,490.2891,1811,478.2891" style="stroke:#181818;stroke-width:0.5;"/><text fill="#000000" font-family="sans-serif" font-size="11" lengthAdjust="spacing" textLength="83" x="1811" y="494.79">Parent Response</text><rect fill="#F1F1F1" height="35.0938" rx="12.5" ry="12.5" style="stroke:#181818;stroke-width:0.5;" width="92" x="1446.5" y="539.9609"/><text fill="#000000" font-family="sans-serif" font-size="12" lengthAdjust="spacing" textLength="72" x="1456.5" y="562.418">14. Absentee</text><rect fill="#F1F1F1" height="35.0938" rx="12.5" ry="12.5" style="stroke:#181818;stroke-width:0.5;" width="229" x="1378" y="610.0547"/><text fill="#000000" font-family="sans-serif" font-size="12" lengthAdjust="spacing" textLength="209" x="1388" y="632.5117">15. Writeback explained absence (PM)</text><ellipse cx="1492.5" cy="691.1484" fill="none" rx="11" ry="11" style="stroke:#222222;stroke-width:1.0;"/><ellipse cx="1492.5" cy="691.1484" fill="#222222" rx="6" ry="6" style="stroke:#222222;stroke-width:1.0;"/><rect fill="#F1F1F1" height="35.0938" rx="12.5" ry="12.5" style="stroke:#181818;stroke-width:0.5;" width="64" x="1627" y="539.9609"/><text fill="#000000" font-family="sans-serif" font-size="12" lengthAdjust="spacing" textLength="44" x="1637" y="562.418">16. Late</text><ellipse cx="1659" cy="620.0547" fill="none" rx="10" ry="10" style="stroke:#222222;stroke-width:1.5;"/><line style="stroke:#222222;stroke-width:2.5;" x1="1652.8128" x2="1665.1872" y1="613.8675" y2="626.2419"/><line style="stroke:#222222;stroke-width:2.5;" x1="1665.1872" x2="1652.8128" y1="613.8675" y2="626.2419"/><rect fill="#F1F1F1" height="35.0938" rx="12.5" ry="12.5" style="stroke:#181818;stroke-width:0.5;" width="114" x="1711" y="539.9609"/><text fill="#000000" font-family="sans-serif" font-size="12" lengthAdjust="spacing" textLength="94" x="1721" y="562.418">17. Please check</text><ellipse cx="1768" cy="620.0547" fill="none" rx="10" ry="10" style="stroke:#222222;stroke-width:1.5;"/><line style="stroke:#222222;stroke-width:2.5;" x1="1761.8128" x2="1774.1872" y1="613.8675" y2="626.2419"/><line style="stroke:#222222;stroke-width:2.5;" x1="1774.1872" x2="1761.8128" y1="613.8675" y2="626.2419"/><path d="M1977,539.9609 L1977,581.8398 L1957,585.8398 L1977,589.8398 L1977,631.7188 A0,0 0 0 0 1977,631.7188 L2327,631.7188 A0,0 0 0 0 2327,631.7188 L2327,549.9609 L2317,539.9609 L1977,539.9609 A0,0 0 0 0 1977,539.9609 " fill="#FEFFDD" style="stroke:#181818;stroke-width:0.5;"/><path d="M2317,539.9609 L2317,549.9609 L2327,549.9609 L2317,539.9609 " fill="#FEFFDD" style="stroke:#181818;stroke-width:0.5;"/><text fill="#000000" font-family="sans-serif" font-size="13" lengthAdjust="spacing" textLength="113" x="1983" y="558.4561">Quick ARF Setting:</text><text fill="#000000" font-family="sans-serif" font-size="13" lengthAdjust="spacing" textLength="329" x="1983" y="574.8076">When enabled, a Pending ARF pop-up appears whenever</text><text fill="#000000" font-family="sans-serif" font-size="13" lengthAdjust="spacing" textLength="213" x="1983" y="591.1592">a parent tries to submit an absentee.</text><text fill="#000000" font-family="sans-serif" font-size="13" lengthAdjust="spacing" textLength="242" x="1983" y="607.5107">The system also displays error messages</text><text fill="#000000" font-family="sans-serif" font-size="13" lengthAdjust="spacing" textLength="146" x="1983" y="623.8623">in "Late" and "PTL Note".</text><rect fill="#F1F1F1" height="35.0938" rx="12.5" ry="12.5" style="stroke:#181818;stroke-width:0.5;" width="112" x="1845" y="568.293"/><text fill="#000000" font-family="sans-serif" font-size="12" lengthAdjust="spacing" textLength="92" x="1855" y="590.75">18. Pending ARF</text><ellipse cx="1901" cy="677.7188" fill="none" rx="11" ry="11" style="stroke:#222222;stroke-width:1.0;"/><ellipse cx="1901" cy="677.7188" fill="#222222" rx="6" ry="6" style="stroke:#222222;stroke-width:1.0;"/><path d="M1399.5,851.8867 L1399.5,910.9414 L1831.5,910.9414 L1831.5,861.8867 L1821.5,851.8867 L1399.5,851.8867 " fill="#FEFFDD" style="stroke:#181818;stroke-width:0.5;"/><path d="M1821.5,851.8867 L1821.5,861.8867 L1831.5,861.8867 L1821.5,851.8867 " fill="#FEFFDD" style="stroke:#181818;stroke-width:0.5;"/><text fill="#000000" font-family="sans-serif" font-size="13" lengthAdjust="spacing" textLength="411" x="1405.5" y="870.3818">At 4 PM, the system rechecks all "Success" or "NA" absence records.</text><text fill="#000000" font-family="sans-serif" font-size="13" lengthAdjust="spacing" textLength="368" x="1405.5" y="886.7334">If any student still appears as Unexplained ABS in any session,</text><text fill="#000000" font-family="sans-serif" font-size="13" lengthAdjust="spacing" textLength="302" x="1405.5" y="903.085">the system will trigger a writeback for those records.</text><path d="M1873.5,860.0625 L1873.5,902.7656 L2081.5,902.7656 L2081.5,870.0625 L2071.5,860.0625 L1873.5,860.0625 " fill="#FEFFDD" style="stroke:#181818;stroke-width:0.5;"/><path d="M2071.5,860.0625 L2071.5,870.0625 L2081.5,870.0625 L2071.5,860.0625 " fill="#FEFFDD" style="stroke:#181818;stroke-width:0.5;"/><text fill="#000000" font-family="sans-serif" font-size="13" lengthAdjust="spacing" textLength="179" x="1879.5" y="878.5576">PM absentee writeback occurs</text><text fill="#000000" font-family="sans-serif" font-size="13" lengthAdjust="spacing" textLength="113" x="1879.5" y="894.9092">with a 1-hour delay.</text><ellipse cx="1852.5" cy="881.4141" fill="none" rx="11" ry="11" style="stroke:#222222;stroke-width:1.0;"/><ellipse cx="1852.5" cy="881.4141" fill="#222222" rx="6" ry="6" style="stroke:#222222;stroke-width:1.0;"/><line style="stroke:#181818;stroke-width:1.0;" x1="1146" x2="1146" y1="68.6094" y2="88.6094"/><polygon fill="#181818" points="1142,78.6094,1146,88.6094,1150,78.6094,1146,82.6094" style="stroke:#181818;stroke-width:1.0;"/><line style="stroke:#181818;stroke-width:1.0;" x1="1146" x2="1146" y1="123.7031" y2="143.7031"/><polygon fill="#181818" points="1142,133.7031,1146,143.7031,1150,133.7031,1146,137.7031" style="stroke:#181818;stroke-width:1.0;"/><line style="stroke:#181818;stroke-width:1.0;" x1="1146" x2="1146" y1="178.7969" y2="207.6016"/><polygon fill="#181818" points="1142,197.6016,1146,207.6016,1150,197.6016,1146,201.6016" style="stroke:#181818;stroke-width:1.0;"/><line style="stroke:#181818;stroke-width:1.0;" x1="1146" x2="1146" y1="242.6953" y2="272.8516"/><polygon fill="#181818" points="1142,262.8516,1146,272.8516,1150,262.8516,1146,266.8516" style="stroke:#181818;stroke-width:1.0;"/><line style="stroke:#181818;stroke-width:1.0;" x1="1146" x2="1146" y1="307.9453" y2="348.1016"/><polygon fill="#181818" points="1142,338.1016,1146,348.1016,1150,338.1016,1146,342.1016" style="stroke:#181818;stroke-width:1.0;"/><line style="stroke:#181818;stroke-width:1.0;" x1="144.5" x2="144.5" y1="668.9961" y2="703.9961"/><polygon fill="#181818" points="140.5,693.9961,144.5,703.9961,148.5,693.9961,144.5,697.9961" style="stroke:#181818;stroke-width:1.0;"/><line style="stroke:#181818;stroke-width:1.0;" x1="144.5" x2="144.5" y1="739.0898" y2="774.0898"/><polygon fill="#181818" points="140.5,764.0898,144.5,774.0898,148.5,764.0898,144.5,768.0898" style="stroke:#181818;stroke-width:1.0;"/><line style="stroke:#181818;stroke-width:1.0;" x1="441" x2="441" y1="704.793" y2="739.793"/><polygon fill="#181818" points="437,729.793,441,739.793,445,729.793,441,733.793" style="stroke:#181818;stroke-width:1.0;"/><line style="stroke:#181818;stroke-width:1.0;" x1="441" x2="441" y1="774.8867" y2="809.8867"/><polygon fill="#181818" points="437,799.8867,441,809.8867,445,799.8867,441,803.8867" style="stroke:#181818;stroke-width:1.0;"/><line style="stroke:#181818;stroke-width:1.0;" x1="654" x2="654" y1="740.8398" y2="775.8398"/><polygon fill="#181818" points="650,765.8398,654,775.8398,658,765.8398,654,769.8398" style="stroke:#181818;stroke-width:1.0;"/><line style="stroke:#181818;stroke-width:1.0;" x1="771" x2="771" y1="740.8398" y2="775.8398"/><polygon fill="#181818" points="767,765.8398,771,775.8398,775,765.8398,771,769.8398" style="stroke:#181818;stroke-width:1.0;"/><line style="stroke:#181818;stroke-width:1.0;" x1="941" x2="941" y1="704.9609" y2="774.8398"/><polygon fill="#181818" points="937,764.8398,941,774.8398,945,764.8398,941,768.8398" style="stroke:#181818;stroke-width:1.0;"/><line style="stroke:#181818;stroke-width:1.0;" x1="441" x2="441" y1="649.6992" y2="669.6992"/><polygon fill="#181818" points="437,659.6992,441,669.6992,445,659.6992,441,663.6992" style="stroke:#181818;stroke-width:1.0;"/><line style="stroke:#181818;stroke-width:1.0;" x1="654" x2="654" y1="649.6992" y2="705.7461"/><polygon fill="#181818" points="650,695.7461,654,705.7461,658,695.7461,654,699.7461" style="stroke:#181818;stroke-width:1.0;"/><line style="stroke:#181818;stroke-width:1.0;" x1="771" x2="771" y1="649.6992" y2="705.7461"/><polygon fill="#181818" points="767,695.7461,771,705.7461,775,695.7461,771,699.7461" style="stroke:#181818;stroke-width:1.0;"/><line style="stroke:#181818;stroke-width:1.0;" x1="941" x2="941" y1="649.6992" y2="669.8672"/><polygon fill="#181818" points="937,659.8672,941,669.8672,945,659.8672,941,663.8672" style="stroke:#181818;stroke-width:1.0;"/><line style="stroke:#181818;stroke-width:1.0;" x1="805" x2="805" y1="613.1992" y2="648.1992"/><polygon fill="#181818" points="801,638.1992,805,648.1992,809,638.1992,805,642.1992" style="stroke:#181818;stroke-width:1.0;"/><line style="stroke:#181818;stroke-width:1.0;" x1="144.5" x2="144.5" y1="558.1055" y2="633.9023"/><polygon fill="#181818" points="140.5,623.9023,144.5,633.9023,148.5,623.9023,144.5,627.9023" style="stroke:#181818;stroke-width:1.0;"/><line style="stroke:#181818;stroke-width:1.0;" x1="805" x2="805" y1="558.1055" y2="578.1055"/><polygon fill="#181818" points="801,568.1055,805,578.1055,809,568.1055,805,572.1055" style="stroke:#181818;stroke-width:1.0;"/><line style="stroke:#181818;stroke-width:1.0;" x1="657.5" x2="657.5" y1="521.6055" y2="556.6055"/><polygon fill="#181818" points="653.5,546.6055,657.5,556.6055,661.5,546.6055,657.5,550.6055" style="stroke:#181818;stroke-width:1.0;"/><line style="stroke:#181818;stroke-width:1.0;" x1="1492.5" x2="1492.5" y1="575.0547" y2="610.0547"/><polygon fill="#181818" points="1488.5,600.0547,1492.5,610.0547,1496.5,600.0547,1492.5,604.0547" style="stroke:#181818;stroke-width:1.0;"/><line style="stroke:#181818;stroke-width:1.0;" x1="1492.5" x2="1492.5" y1="645.1484" y2="680.1484"/><polygon fill="#181818" points="1488.5,670.1484,1492.5,680.1484,1496.5,670.1484,1492.5,674.1484" style="stroke:#181818;stroke-width:1.0;"/><line style="stroke:#181818;stroke-width:1.0;" x1="1659" x2="1659" y1="575.0547" y2="610.0547"/><polygon fill="#181818" points="1655,600.0547,1659,610.0547,1663,600.0547,1659,604.0547" style="stroke:#181818;stroke-width:1.0;"/><line style="stroke:#181818;stroke-width:1.0;" x1="1768" x2="1768" y1="575.0547" y2="610.0547"/><polygon fill="#181818" points="1764,600.0547,1768,610.0547,1772,600.0547,1768,604.0547" style="stroke:#181818;stroke-width:1.0;"/><line style="stroke:#181818;stroke-width:1.0;" x1="1901" x2="1901" y1="603.3867" y2="666.7188"/><polygon fill="#181818" points="1897,656.7188,1901,666.7188,1905,656.7188,1901,660.7188" style="stroke:#181818;stroke-width:1.0;"/><line style="stroke:#181818;stroke-width:1.0;" x1="1799" x2="1492.5" y1="490.2891" y2="490.2891"/><line style="stroke:#181818;stroke-width:1.0;" x1="1492.5" x2="1492.5" y1="490.2891" y2="539.9609"/><polygon fill="#181818" points="1488.5,529.9609,1492.5,539.9609,1496.5,529.9609,1492.5,533.9609" style="stroke:#181818;stroke-width:1.0;"/><text fill="#000000" font-family="sans-serif" font-size="11" lengthAdjust="spacing" textLength="8" x="1492.5" y="519.626">A</text><line style="stroke:#181818;stroke-width:1.0;" x1="1906" x2="1918" y1="490.2891" y2="490.2891"/><line style="stroke:#181818;stroke-width:1.0;" x1="1918" x2="1918" y1="490.2891" y2="514.2891"/><line style="stroke:#181818;stroke-width:1.0;" x1="1918" x2="1901" y1="514.2891" y2="514.2891"/><line style="stroke:#181818;stroke-width:1.0;" x1="1901" x2="1901" y1="514.2891" y2="568.293"/><polygon fill="#181818" points="1897,558.293,1901,568.293,1905,558.293,1901,562.293" style="stroke:#181818;stroke-width:1.0;"/><text fill="#000000" font-family="sans-serif" font-size="11" lengthAdjust="spacing" textLength="7" x="1922" y="494.79">D</text><line style="stroke:#181818;stroke-width:1.0;" x1="1659" x2="1659" y1="490.2891" y2="539.9609"/><polygon fill="#181818" points="1655,529.9609,1659,539.9609,1663,529.9609,1659,533.9609" style="stroke:#181818;stroke-width:1.0;"/><text fill="#000000" font-family="sans-serif" font-size="11" lengthAdjust="spacing" textLength="7" x="1659" y="514.626">B</text><line style="stroke:#181818;stroke-width:1.0;" x1="1768" x2="1768" y1="490.2891" y2="539.9609"/><polygon fill="#181818" points="1764,529.9609,1768,539.9609,1772,529.9609,1768,533.9609" style="stroke:#181818;stroke-width:1.0;"/><text fill="#000000" font-family="sans-serif" font-size="11" lengthAdjust="spacing" textLength="7" x="1768" y="514.626">C</text><line style="stroke:#181818;stroke-width:1.0;" x1="1852.5" x2="1852.5" y1="458.2891" y2="478.2891"/><polygon fill="#181818" points="1848.5,468.2891,1852.5,478.2891,1856.5,468.2891,1852.5,472.2891" style="stroke:#181818;stroke-width:1.0;"/><line style="stroke:#181818;stroke-width:1.0;" x1="657.5" x2="657.5" y1="404.6953" y2="486.5117"/><polygon fill="#181818" points="653.5,476.5117,657.5,486.5117,661.5,476.5117,657.5,480.5117" style="stroke:#181818;stroke-width:1.0;"/><line style="stroke:#181818;stroke-width:1.0;" x1="1852.5" x2="1852.5" y1="404.6953" y2="423.1953"/><polygon fill="#181818" points="1848.5,413.1953,1852.5,423.1953,1856.5,413.1953,1852.5,417.1953" style="stroke:#181818;stroke-width:1.0;"/><line style="stroke:#181818;stroke-width:1.0;" x1="1146" x2="1146" y1="383.1953" y2="403.1953"/><polygon fill="#181818" points="1142,393.1953,1146,403.1953,1150,393.1953,1146,397.1953" style="stroke:#181818;stroke-width:1.0;"/><!--SRC=[hLNBRjj03BphAmYT4i0MwZQloYSdHO02IU3QQNDUhsXhOKMhxAxY-fRFQ7ylNr9IRpjgaQRLIP0umrbok7JA9GZJQvYZjKgdC74EqqYa4a6a4KmM5lbzXfasJgKhkDDclKpqPWZVvXjXqFEi4yPvNZWAkaGpdIHI9CdO2zy7S8bEnlrvnbwg7O9HgzXvSvT7c3fG5gO6BRyIo9OWRqWFHOEGZZaCFkJAOEGH4p295tu8eAOef1DJsabBOeu2Eemp2XyHyXI_PubGAKOWod1ReTkibRu4byu3-BpirEGXH-iiK1KWKbOi4k9PQWCIZIFMccm06OMa54a46vq-F_rq95wY8WrVEnfgvXljr599mQUqG8I4cymk-JlQ06vZhEGYWXEBibFqtqg3I6bZdISHWqWLSM_14Q8-cR3m_FJ3hbMMOHHGK5Cz0AxEXK7X2ayOQY5m3vbyJ8tE4iKr28-vXeyADp2vxfH3QXDH640To0y7JulZWqY8Ejg2pHVtYleVCLnKS5OmhZ4d0Knofs5ZbCE5a6jeYpHjC7MuTJghiu9OKLZDSnfm2bDPiQXH8u8K5MBRfokxVSApeF8IDXaxVpy6SDUZacsmq2ukZfX67G_QboJL0VQKx1obat7qBe0huNh4K2V_WeRdDK5X4MICSlslT3JbKqBm7R5NyrSSc9_EDG0zpvTSKOMvXNDqV1M5lM5tCKq0fiKm3a2qcWYOwMoOPo38-S9Os50eNGEcbqTKGmjyLrWWCvQsfMusmnVq8dayxTOwl2UpMLqFeGKqXbnnJpOGAxIzMBeqVEwjNvZ6dzvU5KFl1ttDgQUs_L0wk7tp-beMZlYMnDAKN1OwMpcXdNcm6yKtza4rkZEq6LaN3vi0oSOvc1nwNGySzOzAE3hkdv9w-0-cruTTGE6FlLJdkwbENWu1-tKFTB4BElszvNl0dtR1Pq7NJ5ti7vpx2jV-3yU-pQrlTUhhNFh2eJjpJtzBZvLLR_uKjIpU9WwEoAA3SdkLCcbhSkDevzBLuizpAKcZpolIlvduZPzCiOjigOTMjaYtpVwpJX6shYXjmvqDV3xdqnNnvNKzA3Ww4ZOCfpAlLcYexksAuYlVnThkfTyfGuzJwdt6oxmbqrBc90-QCAfLJEb6Grhk1YAaFktn_m80]--></g></svg>