<?xml version="1.0" encoding="us-ascii" standalone="no"?><svg xmlns="http://www.w3.org/2000/svg" xmlns:xlink="http://www.w3.org/1999/xlink" contentStyleType="text/css" height="968px" preserveAspectRatio="none" style="width:2582px;height:968px;background:#FFFFFF;" version="1.1" viewBox="0 0 2582 968" width="2582px" zoomAndPan="magnify"><defs/><g><text fill="#000000" font-family="sans-serif" font-size="14" font-weight="bold" lengthAdjust="spacing" textLength="426" x="1076.75" y="34.5332">PM Session Attendance and Late Reporting Process- VSware</text><ellipse cx="936.875" cy="58.6094" fill="#222222" rx="10" ry="10" style="stroke:#222222;stroke-width:1.0;"/><rect fill="#F1F1F1" height="35.0938" rx="12.5" ry="12.5" style="stroke:#181818;stroke-width:0.5;" width="139" x="867.375" y="88.6094"/><text fill="#000000" font-family="sans-serif" font-size="12" lengthAdjust="spacing" textLength="119" x="877.375" y="111.0664">The student is absent</text><rect fill="#F1F1F1" height="35.0938" rx="12.5" ry="12.5" style="stroke:#181818;stroke-width:0.5;" width="170" x="851.875" y="143.7031"/><text fill="#000000" font-family="sans-serif" font-size="12" lengthAdjust="spacing" textLength="150" x="861.875" y="166.1602">Create New PM rollcall ARF</text><polygon fill="#F1F1F1" points="878.375,198.7969,995.375,198.7969,1007.375,212.6328,995.375,226.4688,878.375,226.4688,866.375,212.6328,878.375,198.7969" style="stroke:#181818;stroke-width:0.5;"/><text fill="#000000" font-family="sans-serif" font-size="11" lengthAdjust="spacing" textLength="114" x="878.375" y="210.2158">12. Student Late before</text><text fill="#000000" font-family="sans-serif" font-size="11" lengthAdjust="spacing" textLength="30" x="881.375" y="224.0518">rollcall</text><text fill="#000000" font-family="sans-serif" font-size="11" lengthAdjust="spacing" textLength="20" x="846.375" y="210.2158">Yes</text><text fill="#000000" font-family="sans-serif" font-size="11" lengthAdjust="spacing" textLength="13" x="1007.375" y="210.2158">No</text><path d="M316,236.4688 L316,286.5234 L296,290.5234 L316,294.5234 L316,344.5781 A0,0 0 0 0 316,344.5781 L537,344.5781 A0,0 0 0 0 537,344.5781 L537,246.4688 L527,236.4688 L316,236.4688 A0,0 0 0 0 316,236.4688 " fill="#FEFFDD" style="stroke:#181818;stroke-width:0.5;"/><path d="M527,236.4688 L527,246.4688 L537,246.4688 L527,236.4688 " fill="#FEFFDD" style="stroke:#181818;stroke-width:0.5;"/><text fill="#000000" font-family="sans-serif" font-size="13" lengthAdjust="spacing" textLength="147" x="322" y="254.9639">If Late Note Requests are</text><text fill="#000000" font-family="sans-serif" font-size="13" lengthAdjust="spacing" textLength="160" x="322" y="271.3154">disabled for certain student,</text><text fill="#000000" font-family="sans-serif" font-size="13" lengthAdjust="spacing" textLength="196" x="322" y="287.667">parents won&#8217;t receive Unexplained</text><text fill="#000000" font-family="sans-serif" font-size="13" lengthAdjust="spacing" textLength="186" x="322" y="304.0186">Late Notifications or LNR Notes.</text><text fill="#000000" font-family="sans-serif" font-size="13" lengthAdjust="spacing" textLength="145" x="322" y="320.3701">The Late Note tab should</text><text fill="#000000" font-family="sans-serif" font-size="13" lengthAdjust="spacing" textLength="184" x="322" y="336.7217">display the student as &#8216;skipped.</text><rect fill="#F1F1F1" height="35.0938" rx="12.5" ry="12.5" style="stroke:#181818;stroke-width:0.5;" width="152" x="144" y="272.9766"/><text fill="#000000" font-family="sans-serif" font-size="12" lengthAdjust="spacing" textLength="132" x="154" y="295.4336">18. Student signs in DSI</text><rect fill="#F1F1F1" height="50.1875" rx="12.5" ry="12.5" style="stroke:#181818;stroke-width:0.5;" width="193" x="123.5" y="379.5781"/><text fill="#000000" font-family="sans-serif" font-size="12" lengthAdjust="spacing" textLength="173" x="133.5" y="402.0352">19. Unexplained Late Writeback</text><text fill="#000000" font-family="sans-serif" font-size="12" lengthAdjust="spacing" textLength="66" x="133.5" y="417.1289">PM Session</text><rect fill="#F1F1F1" height="35.0938" rx="12.5" ry="12.5" style="stroke:#181818;stroke-width:0.5;" width="148" x="146" y="464.7656"/><text fill="#000000" font-family="sans-serif" font-size="12" lengthAdjust="spacing" textLength="128" x="156" y="487.2227">20. Send LNR to parent</text><path d="M288,534.8594 L288,692.0234 L540,692.0234 L540,544.8594 L530,534.8594 L288,534.8594 " fill="#FEFFDD" style="stroke:#181818;stroke-width:0.5;"/><path d="M530,534.8594 L530,544.8594 L540,544.8594 L530,534.8594 " fill="#FEFFDD" style="stroke:#181818;stroke-width:0.5;"/><text fill="#000000" font-family="sans-serif" font-size="13" lengthAdjust="spacing" textLength="129" x="294" y="553.3545">Do not allow past-date</text><text fill="#000000" font-family="sans-serif" font-size="13" lengthAdjust="spacing" textLength="137" x="294" y="569.7061">Late Note submissions:</text><text fill="#000000" font-family="sans-serif" font-size="13" lengthAdjust="spacing" textLength="141" x="294" y="586.0576">If this setting is enabled,</text><text fill="#000000" font-family="sans-serif" font-size="13" lengthAdjust="spacing" textLength="161" x="294" y="602.4092">any pending LNR at the end</text><text fill="#000000" font-family="sans-serif" font-size="13" lengthAdjust="spacing" textLength="151" x="294" y="618.7607">of the LNR period will time</text><text fill="#000000" font-family="sans-serif" font-size="13" lengthAdjust="spacing" textLength="138" x="294" y="635.1123">out, and parents will not</text><text fill="#000000" font-family="sans-serif" font-size="13" lengthAdjust="spacing" textLength="209" x="294" y="651.4639">be able to submit LNR the next day.</text><text fill="#000000" font-family="sans-serif" font-size="13" lengthAdjust="spacing" textLength="191" x="294" y="667.8154">If this setting is disabled, parents</text><text fill="#000000" font-family="sans-serif" font-size="13" lengthAdjust="spacing" textLength="231" x="294" y="684.167">are allowed to submit LNR on next days</text><polygon fill="#F1F1F1" points="164,692.0234,276,692.0234,288,704.0234,276,716.0234,164,716.0234,152,704.0234,164,692.0234" style="stroke:#181818;stroke-width:0.5;"/><text fill="#000000" font-family="sans-serif" font-size="11" lengthAdjust="spacing" textLength="112" x="164" y="708.5244">21. Parent submits LNR</text><text fill="#000000" font-family="sans-serif" font-size="11" lengthAdjust="spacing" textLength="53" x="99" y="701.6064">Authorised</text><text fill="#000000" font-family="sans-serif" font-size="11" lengthAdjust="spacing" textLength="64" x="288" y="701.6064">Unauthorised</text><rect fill="#F1F1F1" height="50.1875" rx="12.5" ry="12.5" style="stroke:#181818;stroke-width:0.5;" width="178" x="11" y="726.0234"/><text fill="#000000" font-family="sans-serif" font-size="12" lengthAdjust="spacing" textLength="158" x="21" y="748.4805">22. Explained Late Writeback</text><text fill="#000000" font-family="sans-serif" font-size="12" lengthAdjust="spacing" textLength="66" x="21" y="763.5742">PM Session</text><ellipse cx="100" cy="807.2109" fill="none" rx="11" ry="11" style="stroke:#222222;stroke-width:1.0;"/><ellipse cx="100" cy="807.2109" fill="#222222" rx="6" ry="6" style="stroke:#222222;stroke-width:1.0;"/><rect fill="#F1F1F1" height="50.1875" rx="12.5" ry="12.5" style="stroke:#181818;stroke-width:0.5;" width="262" x="209" y="726.0234"/><text fill="#000000" font-family="sans-serif" font-size="12" lengthAdjust="spacing" textLength="242" x="219" y="748.4805">23. No writeback; unexplained late writeback</text><text fill="#000000" font-family="sans-serif" font-size="12" lengthAdjust="spacing" textLength="137" x="219" y="763.5742">PM Session still remains</text><ellipse cx="340" cy="807.2109" fill="none" rx="11" ry="11" style="stroke:#222222;stroke-width:1.0;"/><ellipse cx="340" cy="807.2109" fill="#222222" rx="6" ry="6" style="stroke:#222222;stroke-width:1.0;"/><line style="stroke:#181818;stroke-width:1.5;" x1="1055.75" x2="2047.5" y1="236.4688" y2="236.4688"/><rect fill="#F1F1F1" height="35.0938" rx="12.5" ry="12.5" style="stroke:#181818;stroke-width:0.5;" width="174" x="968.75" y="257.9688"/><text fill="#000000" font-family="sans-serif" font-size="12" lengthAdjust="spacing" textLength="154" x="978.75" y="280.4258">3. Review AM Rollcall record</text><line style="stroke:#181818;stroke-width:1.5;" x1="998.5" x2="1389" y1="328.0625" y2="328.0625"/><path d="M1108.5,353.3047 L1108.5,370.6563 L1088.5,374.6563 L1108.5,378.6563 L1108.5,396.0078 A0,0 0 0 0 1108.5,396.0078 L1262.5,396.0078 A0,0 0 0 0 1262.5,396.0078 L1262.5,363.3047 L1252.5,353.3047 L1108.5,353.3047 A0,0 0 0 0 1108.5,353.3047 " fill="#FEFFDD" style="stroke:#181818;stroke-width:0.5;"/><path d="M1252.5,353.3047 L1252.5,363.3047 L1262.5,363.3047 L1252.5,353.3047 " fill="#FEFFDD" style="stroke:#181818;stroke-width:0.5;"/><text fill="#000000" font-family="sans-serif" font-size="13" lengthAdjust="spacing" textLength="129" x="1114.5" y="371.7998">Parent allow to submit</text><text fill="#000000" font-family="sans-serif" font-size="13" lengthAdjust="spacing" textLength="103" x="1114.5" y="388.1514">only one late note</text><rect fill="#F1F1F1" height="50.1875" rx="12.5" ry="12.5" style="stroke:#181818;stroke-width:0.5;" width="180" x="908.5" y="349.5625"/><text fill="#000000" font-family="sans-serif" font-size="12" lengthAdjust="spacing" textLength="160" x="918.5" y="372.0195">4. Parent submit Late Note or</text><text fill="#000000" font-family="sans-serif" font-size="12" lengthAdjust="spacing" textLength="115" x="918.5" y="387.1133">AM ARF Mark as Late</text><polygon fill="#F1F1F1" points="921,434.75,1076,434.75,1088,446.75,1076,458.75,921,458.75,909,446.75,921,434.75" style="stroke:#181818;stroke-width:0.5;"/><text fill="#000000" font-family="sans-serif" font-size="11" lengthAdjust="spacing" textLength="155" x="921" y="451.251">5. Student arrived in PM session</text><text fill="#000000" font-family="sans-serif" font-size="11" lengthAdjust="spacing" textLength="18" x="891" y="444.333">yes</text><text fill="#000000" font-family="sans-serif" font-size="11" lengthAdjust="spacing" textLength="13" x="1088" y="444.333">No</text><polygon fill="#F1F1F1" points="776,468.75,884,468.75,896,480.75,884,492.75,776,492.75,764,480.75,776,468.75" style="stroke:#181818;stroke-width:0.5;"/><text fill="#000000" font-family="sans-serif" font-size="11" lengthAdjust="spacing" textLength="108" x="776" y="485.251">6. Student signs in DSI</text><text fill="#000000" font-family="sans-serif" font-size="11" lengthAdjust="spacing" textLength="20" x="744" y="478.333">Yes</text><text fill="#000000" font-family="sans-serif" font-size="11" lengthAdjust="spacing" textLength="13" x="896" y="478.333">No</text><rect fill="#F1F1F1" height="65.2813" rx="12.5" ry="12.5" style="stroke:#181818;stroke-width:0.5;" width="212" x="608" y="502.75"/><text fill="#000000" font-family="sans-serif" font-size="12" lengthAdjust="spacing" textLength="151" x="618" y="525.207">7. Explained Late Writeback</text><text fill="#000000" font-family="sans-serif" font-size="12" lengthAdjust="spacing" textLength="192" x="618" y="540.3008">on PM Session &amp; Explain Absentee</text><text fill="#000000" font-family="sans-serif" font-size="12" lengthAdjust="spacing" textLength="132" x="618" y="555.3945">Writback on AM Session</text><ellipse cx="714" cy="614.0313" fill="none" rx="11" ry="11" style="stroke:#222222;stroke-width:1.0;"/><ellipse cx="714" cy="614.0313" fill="#222222" rx="6" ry="6" style="stroke:#222222;stroke-width:1.0;"/><rect fill="#F1F1F1" height="50.1875" rx="12.5" ry="12.5" style="stroke:#181818;stroke-width:0.5;" width="158" x="867" y="502.75"/><text fill="#000000" font-family="sans-serif" font-size="12" lengthAdjust="spacing" textLength="138" x="877" y="525.207">8. Staff performs 'Mark as</text><text fill="#000000" font-family="sans-serif" font-size="12" lengthAdjust="spacing" textLength="113" x="877" y="540.3008">\n Late DSI Manually'</text><rect fill="#F1F1F1" height="65.2813" rx="12.5" ry="12.5" style="stroke:#181818;stroke-width:0.5;" width="212" x="840" y="587.9375"/><text fill="#000000" font-family="sans-serif" font-size="12" lengthAdjust="spacing" textLength="151" x="850" y="610.3945">9. Explained Late Writeback</text><text fill="#000000" font-family="sans-serif" font-size="12" lengthAdjust="spacing" textLength="192" x="850" y="625.4883">on PM Session &amp; Explain Absentee</text><text fill="#000000" font-family="sans-serif" font-size="12" lengthAdjust="spacing" textLength="132" x="850" y="640.582">Writback on AM Session</text><ellipse cx="946" cy="699.2188" fill="none" rx="11" ry="11" style="stroke:#222222;stroke-width:1.0;"/><ellipse cx="946" cy="699.2188" fill="#222222" rx="6" ry="6" style="stroke:#222222;stroke-width:1.0;"/><rect fill="#F1F1F1" height="50.1875" rx="12.5" ry="12.5" style="stroke:#181818;stroke-width:0.5;" width="170" x="1082" y="468.75"/><text fill="#000000" font-family="sans-serif" font-size="12" lengthAdjust="spacing" textLength="150" x="1092" y="491.207">10. The AM ARF is resent to</text><text fill="#000000" font-family="sans-serif" font-size="12" lengthAdjust="spacing" textLength="102" x="1092" y="506.3008">the parent next day</text><ellipse cx="1167" cy="564.9375" fill="none" rx="11" ry="11" style="stroke:#222222;stroke-width:1.0;"/><ellipse cx="1167" cy="564.9375" fill="#222222" rx="6" ry="6" style="stroke:#222222;stroke-width:1.0;"/><rect fill="#F1F1F1" height="50.1875" rx="12.5" ry="12.5" style="stroke:#181818;stroke-width:0.5;" width="233" x="1272.5" y="482.2969"/><text fill="#000000" font-family="sans-serif" font-size="12" lengthAdjust="spacing" textLength="213" x="1282.5" y="504.7539">11. AM Session Pending ARF Continue</text><text fill="#000000" font-family="sans-serif" font-size="12" lengthAdjust="spacing" textLength="193" x="1282.5" y="519.8477">No new ARF implies in PM session</text><ellipse cx="1389" cy="578.4844" fill="none" rx="11" ry="11" style="stroke:#222222;stroke-width:1.0;"/><ellipse cx="1389" cy="578.4844" fill="#222222" rx="6" ry="6" style="stroke:#222222;stroke-width:1.0;"/><rect fill="#F1F1F1" height="35.0938" rx="12.5" ry="12.5" style="stroke:#181818;stroke-width:0.5;" width="206" x="1944.5" y="280.6094"/><text fill="#000000" font-family="sans-serif" font-size="12" lengthAdjust="spacing" textLength="186" x="1954.5" y="303.0664">24. Send PM rollcall ARF to Parent</text><line style="stroke:#181818;stroke-width:1.5;" x1="1561.5" x2="2478.5" y1="350.7031" y2="350.7031"/><rect fill="#F1F1F1" height="35.0938" rx="12.5" ry="12.5" style="stroke:#181818;stroke-width:0.5;" width="92" x="1515.5" y="490.8438"/><text fill="#000000" font-family="sans-serif" font-size="12" lengthAdjust="spacing" textLength="72" x="1525.5" y="513.3008">25. Absentee</text><ellipse cx="1561.5" cy="570.9375" fill="none" rx="10" ry="10" style="stroke:#222222;stroke-width:1.5;"/><line style="stroke:#222222;stroke-width:2.5;" x1="1555.3128" x2="1567.6872" y1="564.7503" y2="577.1247"/><line style="stroke:#222222;stroke-width:2.5;" x1="1567.6872" x2="1555.3128" y1="564.7503" y2="577.1247"/><rect fill="#F1F1F1" height="35.0938" rx="12.5" ry="12.5" style="stroke:#181818;stroke-width:0.5;" width="64" x="1954" y="372.2031"/><text fill="#000000" font-family="sans-serif" font-size="12" lengthAdjust="spacing" textLength="44" x="1964" y="394.6602">26. Late</text><polygon fill="#F1F1F1" points="1905.5,442.2969,2066.5,442.2969,2078.5,454.2969,2066.5,466.2969,1905.5,466.2969,1893.5,454.2969,1905.5,442.2969" style="stroke:#181818;stroke-width:0.5;"/><text fill="#000000" font-family="sans-serif" font-size="11" lengthAdjust="spacing" textLength="161" x="1905.5" y="458.7979">27. Student arrived in PM session</text><text fill="#000000" font-family="sans-serif" font-size="11" lengthAdjust="spacing" textLength="18" x="1875.5" y="451.8799">yes</text><text fill="#000000" font-family="sans-serif" font-size="11" lengthAdjust="spacing" textLength="12" x="2078.5" y="451.8799">no</text><polygon fill="#F1F1F1" points="1761,476.2969,1857,476.2969,1869,488.2969,1857,500.2969,1761,500.2969,1749,488.2969,1761,476.2969" style="stroke:#181818;stroke-width:0.5;"/><text fill="#000000" font-family="sans-serif" font-size="11" lengthAdjust="spacing" textLength="96" x="1761" y="492.7979">Student signs in DSI</text><text fill="#000000" font-family="sans-serif" font-size="11" lengthAdjust="spacing" textLength="20" x="1729" y="485.8799">Yes</text><text fill="#000000" font-family="sans-serif" font-size="11" lengthAdjust="spacing" textLength="13" x="1869" y="485.8799">No</text><rect fill="#F1F1F1" height="50.1875" rx="12.5" ry="12.5" style="stroke:#181818;stroke-width:0.5;" width="158" x="1617.5" y="510.2969"/><text fill="#000000" font-family="sans-serif" font-size="12" lengthAdjust="spacing" textLength="138" x="1627.5" y="532.7539">Explained Late Writeback</text><text fill="#000000" font-family="sans-serif" font-size="12" lengthAdjust="spacing" textLength="66" x="1627.5" y="547.8477">PM Session</text><ellipse cx="1696.5" cy="606.4844" fill="none" rx="11" ry="11" style="stroke:#222222;stroke-width:1.0;"/><ellipse cx="1696.5" cy="606.4844" fill="#222222" rx="6" ry="6" style="stroke:#222222;stroke-width:1.0;"/><rect fill="#F1F1F1" height="35.0938" rx="12.5" ry="12.5" style="stroke:#181818;stroke-width:0.5;" width="252" x="1795.5" y="510.2969"/><text fill="#000000" font-family="sans-serif" font-size="12" lengthAdjust="spacing" textLength="232" x="1805.5" y="532.7539">Staff performs "Mark as Late DSI Manually"</text><rect fill="#F1F1F1" height="50.1875" rx="12.5" ry="12.5" style="stroke:#181818;stroke-width:0.5;" width="158" x="1842.5" y="580.3906"/><text fill="#000000" font-family="sans-serif" font-size="12" lengthAdjust="spacing" textLength="138" x="1852.5" y="602.8477">Explained Late Writeback</text><text fill="#000000" font-family="sans-serif" font-size="12" lengthAdjust="spacing" textLength="66" x="1855.5" y="617.9414">PM Session</text><ellipse cx="1921.5" cy="676.5781" fill="none" rx="11" ry="11" style="stroke:#222222;stroke-width:1.0;"/><ellipse cx="1921.5" cy="676.5781" fill="#222222" rx="6" ry="6" style="stroke:#222222;stroke-width:1.0;"/><rect fill="#F1F1F1" height="50.1875" rx="12.5" ry="12.5" style="stroke:#181818;stroke-width:0.5;" width="171" x="2077.5" y="476.2969"/><text fill="#000000" font-family="sans-serif" font-size="12" lengthAdjust="spacing" textLength="151" x="2087.5" y="498.7539">32. The ARF is resent to the</text><text fill="#000000" font-family="sans-serif" font-size="12" lengthAdjust="spacing" textLength="102" x="2087.5" y="513.8477">parent the next day</text><ellipse cx="2163" cy="572.4844" fill="none" rx="11" ry="11" style="stroke:#222222;stroke-width:1.0;"/><ellipse cx="2163" cy="572.4844" fill="#222222" rx="6" ry="6" style="stroke:#222222;stroke-width:1.0;"/><rect fill="#F1F1F1" height="35.0938" rx="12.5" ry="12.5" style="stroke:#181818;stroke-width:0.5;" width="117" x="2258.5" y="490.8438"/><text fill="#000000" font-family="sans-serif" font-size="12" lengthAdjust="spacing" textLength="97" x="2268.5" y="513.3008">33. Please Check</text><ellipse cx="2317" cy="570.9375" fill="none" rx="10" ry="10" style="stroke:#222222;stroke-width:1.5;"/><line style="stroke:#222222;stroke-width:2.5;" x1="2310.8128" x2="2323.1872" y1="564.7503" y2="577.1247"/><line style="stroke:#222222;stroke-width:2.5;" x1="2323.1872" x2="2310.8128" y1="564.7503" y2="577.1247"/><rect fill="#F1F1F1" height="35.0938" rx="12.5" ry="12.5" style="stroke:#181818;stroke-width:0.5;" width="171" x="2393" y="447.25"/><text fill="#000000" font-family="sans-serif" font-size="12" lengthAdjust="spacing" textLength="151" x="2403" y="469.707">34. Pending PM rollcall ARF</text><rect fill="#F1F1F1" height="50.1875" rx="12.5" ry="12.5" style="stroke:#181818;stroke-width:0.5;" width="186" x="2385.5" y="517.3438"/><text fill="#000000" font-family="sans-serif" font-size="12" lengthAdjust="spacing" textLength="166" x="2395.5" y="539.8008">35. ARF remains pending until</text><text fill="#000000" font-family="sans-serif" font-size="12" lengthAdjust="spacing" textLength="112" x="2395.5" y="554.8945">the parent submits it</text><ellipse cx="2478.5" cy="613.5313" fill="none" rx="11" ry="11" style="stroke:#222222;stroke-width:1.0;"/><ellipse cx="2478.5" cy="613.5313" fill="#222222" rx="6" ry="6" style="stroke:#222222;stroke-width:1.0;"/><path d="M507.875,862.7383 L507.875,921.793 L915.875,921.793 L915.875,872.7383 L905.875,862.7383 L507.875,862.7383 " fill="#FEFFDD" style="stroke:#181818;stroke-width:0.5;"/><path d="M905.875,862.7383 L905.875,872.7383 L915.875,872.7383 L905.875,862.7383 " fill="#FEFFDD" style="stroke:#181818;stroke-width:0.5;"/><text fill="#000000" font-family="sans-serif" font-size="13" lengthAdjust="spacing" textLength="387" x="513.875" y="881.2334">At 4 PM, the system rechecks all "Success" or "NA" Late records.</text><text fill="#000000" font-family="sans-serif" font-size="13" lengthAdjust="spacing" textLength="368" x="513.875" y="897.585">If any student still appears as Unexplained ABS in any session,</text><text fill="#000000" font-family="sans-serif" font-size="13" lengthAdjust="spacing" textLength="302" x="513.875" y="913.9365">the system will trigger a writeback for those records.</text><path d="M957.875,838.2109 L957.875,946.3203 L1199.875,946.3203 L1199.875,848.2109 L1189.875,838.2109 L957.875,838.2109 " fill="#FEFFDD" style="stroke:#181818;stroke-width:0.5;"/><path d="M1189.875,838.2109 L1189.875,848.2109 L1199.875,848.2109 L1189.875,838.2109 " fill="#FEFFDD" style="stroke:#181818;stroke-width:0.5;"/><text fill="#000000" font-family="sans-serif" font-size="13" lengthAdjust="spacing" textLength="145" x="963.875" y="856.7061">Delay Writeback Setting:</text><text fill="#000000" font-family="sans-serif" font-size="13" lengthAdjust="spacing" textLength="217" x="963.875" y="873.0576">When enabled, writeback occurs only</text><text fill="#000000" font-family="sans-serif" font-size="13" lengthAdjust="spacing" textLength="178" x="963.875" y="889.4092">after the configured delay time.</text><text fill="#000000" font-family="sans-serif" font-size="13" lengthAdjust="spacing" textLength="177" x="963.875" y="905.7607">If this setting is not configured,</text><text fill="#000000" font-family="sans-serif" font-size="13" lengthAdjust="spacing" textLength="211" x="963.875" y="922.1123">writeback happens at the default AM</text><text fill="#000000" font-family="sans-serif" font-size="13" lengthAdjust="spacing" textLength="117" x="963.875" y="938.4639">or PM session time.</text><ellipse cx="936.875" cy="892.2656" fill="none" rx="11" ry="11" style="stroke:#222222;stroke-width:1.0;"/><ellipse cx="936.875" cy="892.2656" fill="#222222" rx="6" ry="6" style="stroke:#222222;stroke-width:1.0;"/><line style="stroke:#181818;stroke-width:1.0;" x1="936.875" x2="936.875" y1="68.6094" y2="88.6094"/><polygon fill="#181818" points="932.875,78.6094,936.875,88.6094,940.875,78.6094,936.875,82.6094" style="stroke:#181818;stroke-width:1.0;"/><line style="stroke:#181818;stroke-width:1.0;" x1="936.875" x2="936.875" y1="123.7031" y2="143.7031"/><polygon fill="#181818" points="932.875,133.7031,936.875,143.7031,940.875,133.7031,936.875,137.7031" style="stroke:#181818;stroke-width:1.0;"/><line style="stroke:#181818;stroke-width:1.0;" x1="220" x2="220" y1="308.0703" y2="379.5781"/><polygon fill="#181818" points="216,369.5781,220,379.5781,224,369.5781,220,373.5781" style="stroke:#181818;stroke-width:1.0;"/><line style="stroke:#181818;stroke-width:1.0;" x1="220" x2="220" y1="429.7656" y2="464.7656"/><polygon fill="#181818" points="216,454.7656,220,464.7656,224,454.7656,220,458.7656" style="stroke:#181818;stroke-width:1.0;"/><line style="stroke:#181818;stroke-width:1.0;" x1="100" x2="100" y1="776.2109" y2="796.2109"/><polygon fill="#181818" points="96,786.2109,100,796.2109,104,786.2109,100,790.2109" style="stroke:#181818;stroke-width:1.0;"/><line style="stroke:#181818;stroke-width:1.0;" x1="340" x2="340" y1="776.2109" y2="796.2109"/><polygon fill="#181818" points="336,786.2109,340,796.2109,344,786.2109,340,790.2109" style="stroke:#181818;stroke-width:1.0;"/><line style="stroke:#181818;stroke-width:1.0;" x1="152" x2="100" y1="704.0234" y2="704.0234"/><line style="stroke:#181818;stroke-width:1.0;" x1="100" x2="100" y1="704.0234" y2="726.0234"/><polygon fill="#181818" points="96,716.0234,100,726.0234,104,716.0234,100,720.0234" style="stroke:#181818;stroke-width:1.0;"/><line style="stroke:#181818;stroke-width:1.0;" x1="288" x2="340" y1="704.0234" y2="704.0234"/><line style="stroke:#181818;stroke-width:1.0;" x1="340" x2="340" y1="704.0234" y2="726.0234"/><polygon fill="#181818" points="336,716.0234,340,726.0234,344,716.0234,340,720.0234" style="stroke:#181818;stroke-width:1.0;"/><line style="stroke:#181818;stroke-width:1.0;" x1="220" x2="220" y1="499.8594" y2="692.0234"/><polygon fill="#181818" points="216,682.0234,220,692.0234,224,682.0234,220,686.0234" style="stroke:#181818;stroke-width:1.0;"/><line style="stroke:#181818;stroke-width:1.0;" x1="714" x2="714" y1="568.0313" y2="603.0313"/><polygon fill="#181818" points="710,593.0313,714,603.0313,718,593.0313,714,597.0313" style="stroke:#181818;stroke-width:1.0;"/><line style="stroke:#181818;stroke-width:1.0;" x1="946" x2="946" y1="552.9375" y2="587.9375"/><polygon fill="#181818" points="942,577.9375,946,587.9375,950,577.9375,946,581.9375" style="stroke:#181818;stroke-width:1.0;"/><line style="stroke:#181818;stroke-width:1.0;" x1="946" x2="946" y1="653.2188" y2="688.2188"/><polygon fill="#181818" points="942,678.2188,946,688.2188,950,678.2188,946,682.2188" style="stroke:#181818;stroke-width:1.0;"/><line style="stroke:#181818;stroke-width:1.0;" x1="764" x2="714" y1="480.75" y2="480.75"/><line style="stroke:#181818;stroke-width:1.0;" x1="714" x2="714" y1="480.75" y2="502.75"/><polygon fill="#181818" points="710,492.75,714,502.75,718,492.75,714,496.75" style="stroke:#181818;stroke-width:1.0;"/><line style="stroke:#181818;stroke-width:1.0;" x1="896" x2="946" y1="480.75" y2="480.75"/><line style="stroke:#181818;stroke-width:1.0;" x1="946" x2="946" y1="480.75" y2="502.75"/><polygon fill="#181818" points="942,492.75,946,502.75,950,492.75,946,496.75" style="stroke:#181818;stroke-width:1.0;"/><line style="stroke:#181818;stroke-width:1.0;" x1="1167" x2="1167" y1="518.9375" y2="553.9375"/><polygon fill="#181818" points="1163,543.9375,1167,553.9375,1171,543.9375,1167,547.9375" style="stroke:#181818;stroke-width:1.0;"/><line style="stroke:#181818;stroke-width:1.0;" x1="909" x2="830" y1="446.75" y2="446.75"/><line style="stroke:#181818;stroke-width:1.0;" x1="830" x2="830" y1="446.75" y2="468.75"/><polygon fill="#181818" points="826,458.75,830,468.75,834,458.75,830,462.75" style="stroke:#181818;stroke-width:1.0;"/><line style="stroke:#181818;stroke-width:1.0;" x1="1088" x2="1167" y1="446.75" y2="446.75"/><line style="stroke:#181818;stroke-width:1.0;" x1="1167" x2="1167" y1="446.75" y2="468.75"/><polygon fill="#181818" points="1163,458.75,1167,468.75,1171,458.75,1167,462.75" style="stroke:#181818;stroke-width:1.0;"/><line style="stroke:#181818;stroke-width:1.0;" x1="998.5" x2="998.5" y1="399.75" y2="434.75"/><polygon fill="#181818" points="994.5,424.75,998.5,434.75,1002.5,424.75,998.5,428.75" style="stroke:#181818;stroke-width:1.0;"/><line style="stroke:#181818;stroke-width:1.0;" x1="1389" x2="1389" y1="532.4844" y2="567.4844"/><polygon fill="#181818" points="1385,557.4844,1389,567.4844,1393,557.4844,1389,561.4844" style="stroke:#181818;stroke-width:1.0;"/><line style="stroke:#181818;stroke-width:1.0;" x1="998.5" x2="998.5" y1="329.5625" y2="349.5625"/><polygon fill="#181818" points="994.5,339.5625,998.5,349.5625,1002.5,339.5625,998.5,343.5625" style="stroke:#181818;stroke-width:1.0;"/><line style="stroke:#181818;stroke-width:1.0;" x1="1389" x2="1389" y1="329.5625" y2="482.2969"/><polygon fill="#181818" points="1385,472.2969,1389,482.2969,1393,472.2969,1389,476.2969" style="stroke:#181818;stroke-width:1.0;"/><line style="stroke:#181818;stroke-width:1.0;" x1="1055.75" x2="1055.75" y1="293.0625" y2="328.0625"/><polygon fill="#181818" points="1051.75,318.0625,1055.75,328.0625,1059.75,318.0625,1055.75,322.0625" style="stroke:#181818;stroke-width:1.0;"/><line style="stroke:#181818;stroke-width:1.0;" x1="1561.5" x2="1561.5" y1="525.9375" y2="560.9375"/><polygon fill="#181818" points="1557.5,550.9375,1561.5,560.9375,1565.5,550.9375,1561.5,554.9375" style="stroke:#181818;stroke-width:1.0;"/><line style="stroke:#181818;stroke-width:1.0;" x1="1696.5" x2="1696.5" y1="560.4844" y2="595.4844"/><polygon fill="#181818" points="1692.5,585.4844,1696.5,595.4844,1700.5,585.4844,1696.5,589.4844" style="stroke:#181818;stroke-width:1.0;"/><line style="stroke:#181818;stroke-width:1.0;" x1="1921.5" x2="1921.5" y1="545.3906" y2="580.3906"/><polygon fill="#181818" points="1917.5,570.3906,1921.5,580.3906,1925.5,570.3906,1921.5,574.3906" style="stroke:#181818;stroke-width:1.0;"/><line style="stroke:#181818;stroke-width:1.0;" x1="1921.5" x2="1921.5" y1="630.5781" y2="665.5781"/><polygon fill="#181818" points="1917.5,655.5781,1921.5,665.5781,1925.5,655.5781,1921.5,659.5781" style="stroke:#181818;stroke-width:1.0;"/><line style="stroke:#181818;stroke-width:1.0;" x1="1749" x2="1696.5" y1="488.2969" y2="488.2969"/><line style="stroke:#181818;stroke-width:1.0;" x1="1696.5" x2="1696.5" y1="488.2969" y2="510.2969"/><polygon fill="#181818" points="1692.5,500.2969,1696.5,510.2969,1700.5,500.2969,1696.5,504.2969" style="stroke:#181818;stroke-width:1.0;"/><line style="stroke:#181818;stroke-width:1.0;" x1="1869" x2="1921.5" y1="488.2969" y2="488.2969"/><line style="stroke:#181818;stroke-width:1.0;" x1="1921.5" x2="1921.5" y1="488.2969" y2="510.2969"/><polygon fill="#181818" points="1917.5,500.2969,1921.5,510.2969,1925.5,500.2969,1921.5,504.2969" style="stroke:#181818;stroke-width:1.0;"/><line style="stroke:#181818;stroke-width:1.0;" x1="2163" x2="2163" y1="526.4844" y2="561.4844"/><polygon fill="#181818" points="2159,551.4844,2163,561.4844,2167,551.4844,2163,555.4844" style="stroke:#181818;stroke-width:1.0;"/><line style="stroke:#181818;stroke-width:1.0;" x1="1893.5" x2="1809" y1="454.2969" y2="454.2969"/><line style="stroke:#181818;stroke-width:1.0;" x1="1809" x2="1809" y1="454.2969" y2="476.2969"/><polygon fill="#181818" points="1805,466.2969,1809,476.2969,1813,466.2969,1809,470.2969" style="stroke:#181818;stroke-width:1.0;"/><line style="stroke:#181818;stroke-width:1.0;" x1="2078.5" x2="2163" y1="454.2969" y2="454.2969"/><line style="stroke:#181818;stroke-width:1.0;" x1="2163" x2="2163" y1="454.2969" y2="476.2969"/><polygon fill="#181818" points="2159,466.2969,2163,476.2969,2167,466.2969,2163,470.2969" style="stroke:#181818;stroke-width:1.0;"/><line style="stroke:#181818;stroke-width:1.0;" x1="1986" x2="1986" y1="407.2969" y2="442.2969"/><polygon fill="#181818" points="1982,432.2969,1986,442.2969,1990,432.2969,1986,436.2969" style="stroke:#181818;stroke-width:1.0;"/><line style="stroke:#181818;stroke-width:1.0;" x1="2317" x2="2317" y1="525.9375" y2="560.9375"/><polygon fill="#181818" points="2313,550.9375,2317,560.9375,2321,550.9375,2317,554.9375" style="stroke:#181818;stroke-width:1.0;"/><line style="stroke:#181818;stroke-width:1.0;" x1="2478.5" x2="2478.5" y1="482.3438" y2="517.3438"/><polygon fill="#181818" points="2474.5,507.3438,2478.5,517.3438,2482.5,507.3438,2478.5,511.3438" style="stroke:#181818;stroke-width:1.0;"/><line style="stroke:#181818;stroke-width:1.0;" x1="2478.5" x2="2478.5" y1="567.5313" y2="602.5313"/><polygon fill="#181818" points="2474.5,592.5313,2478.5,602.5313,2482.5,592.5313,2478.5,596.5313" style="stroke:#181818;stroke-width:1.0;"/><line style="stroke:#181818;stroke-width:1.0;" x1="1561.5" x2="1561.5" y1="352.2031" y2="490.8438"/><polygon fill="#181818" points="1557.5,480.8438,1561.5,490.8438,1565.5,480.8438,1561.5,484.8438" style="stroke:#181818;stroke-width:1.0;"/><line style="stroke:#181818;stroke-width:1.0;" x1="1986" x2="1986" y1="352.2031" y2="372.2031"/><polygon fill="#181818" points="1982,362.2031,1986,372.2031,1990,362.2031,1986,366.2031" style="stroke:#181818;stroke-width:1.0;"/><line style="stroke:#181818;stroke-width:1.0;" x1="2317" x2="2317" y1="352.2031" y2="490.8438"/><polygon fill="#181818" points="2313,480.8438,2317,490.8438,2321,480.8438,2317,484.8438" style="stroke:#181818;stroke-width:1.0;"/><line style="stroke:#181818;stroke-width:1.0;" x1="2478.5" x2="2478.5" y1="352.2031" y2="447.25"/><polygon fill="#181818" points="2474.5,437.25,2478.5,447.25,2482.5,437.25,2478.5,441.25" style="stroke:#181818;stroke-width:1.0;"/><line style="stroke:#181818;stroke-width:1.0;" x1="2047.5" x2="2047.5" y1="315.7031" y2="350.7031"/><polygon fill="#181818" points="2043.5,340.7031,2047.5,350.7031,2051.5,340.7031,2047.5,344.7031" style="stroke:#181818;stroke-width:1.0;"/><line style="stroke:#181818;stroke-width:1.0;" x1="1055.75" x2="1055.75" y1="237.9688" y2="257.9688"/><polygon fill="#181818" points="1051.75,247.9688,1055.75,257.9688,1059.75,247.9688,1055.75,251.9688" style="stroke:#181818;stroke-width:1.0;"/><line style="stroke:#181818;stroke-width:1.0;" x1="2047.5" x2="2047.5" y1="237.9688" y2="280.6094"/><polygon fill="#181818" points="2043.5,270.6094,2047.5,280.6094,2051.5,270.6094,2047.5,274.6094" style="stroke:#181818;stroke-width:1.0;"/><line style="stroke:#181818;stroke-width:1.0;" x1="866.375" x2="220" y1="212.6328" y2="212.6328"/><line style="stroke:#181818;stroke-width:1.0;" x1="220" x2="220" y1="212.6328" y2="272.9766"/><polygon fill="#181818" points="216,262.9766,220,272.9766,224,262.9766,220,266.9766" style="stroke:#181818;stroke-width:1.0;"/><line style="stroke:#181818;stroke-width:1.0;" x1="1007.375" x2="1589.75" y1="212.6328" y2="212.6328"/><line style="stroke:#181818;stroke-width:1.0;" x1="1589.75" x2="1589.75" y1="212.6328" y2="236.4688"/><polygon fill="#181818" points="1585.75,226.4688,1589.75,236.4688,1593.75,226.4688,1589.75,230.4688" style="stroke:#181818;stroke-width:1.0;"/><line style="stroke:#181818;stroke-width:1.0;" x1="936.875" x2="936.875" y1="178.7969" y2="198.7969"/><polygon fill="#181818" points="932.875,188.7969,936.875,198.7969,940.875,188.7969,936.875,192.7969" style="stroke:#181818;stroke-width:1.0;"/><!--SRC=[rLVDRXit4BxlKmnqQ6n04MhPJPhLIRLR841i25RIe40lrEwiH7X5gYGtYcvvZFRryYITuVvnfPLirwVgO1ZIS7w_x-FGIPSZp6vXZjPAhM3g7AfKg0H1g1G-28TmZnjjd5HBc1cTaE5h-7s-5GQZo3fXN1H_N25OLwIe74WBOc7flqaKNnja1tUuvHX6vtaYyXoczxzD8fd1sSLu1FFgd0-rm4mRX3zLOtmEReKAplv0Unv1zOalVcuFMhbK5gI2c_dxIMC2e3GvD7AvSi6NxxCoq9tsXVrLe7MKCCKCZ59fnIB752WPID0uGTwh-eQXuOOEAZg_rUhxjtyS64nGVa7ufF3h9gTJv2CmhoFBJ2R2KRijK80FT_S-7JiARRcbRQPEBC2kT96dUtbIb1rtg6c_iF3zsz_sGMusc8u2OnghRqdGn7UZJgO-t6SZ7Iv4yj06Qk7HjZSU_qWJO9-SljDLAoPHOy7p7L-COEP_05iirf9QHURrIAU5MsaZBQRdGPv71WTme_aN84peBOMpxdNA2NTisexvU3vf6tTj209kHIYrw3oewLzKVjx3hg5GEzXGYMp4LGhdEyr5T-nqvhzdamqQgLFOIaAva-kzx7H1y65QDRXXEowgOxOWxb4wtDMoQsMFAGGDoq4gTgD7AweXF6nYTKiZmFj6qjYxOKW3wYYsS-G0FoKCYC6_FegWOoZYZtLwqw86Sujmzac98zY8nvSZ6Z1iwo0JA088vvp0zh44A2Ottk2QJjcUT8AQPHP5PL9t-hpCaqWdMsZ6bD0zVf6aSTDRkAyrZgH0cxJrtJta3rxjaID0Byb2nvOyasZ2hJ0Fp70sd3o5CvN_aZFjeBkeLFcE_c3Pl8CHzyvTPcS_jGeiZ27LIrc3gScsR7BDybqetA4ulEcNy5x1x_JjxLCXrrOO3l-7-ZHC_Js5s7k8VNgNV2iUmMulQBfGPjJqLk5lC95bh1bqpwmjlAh7stk0xaHVAxM8SA0AckdkLNywyRl_IOSylVPxrjko-8Bk6xuJAoQGn1dat1ZL1zQibQNkDM9scDP1IjrqF651BAaDNTfUqANMbWkpweRWhAwr8W4kzcIVv4gnEd3QQ_AAjikKqm9KAKTqBATuV5NTn7ih5dTcLjtAdG07IbIw8KBNuvxqZUhGIKztIbT4xKE9gdHZ_FQbml5irOYVJeRP2Hp_5vRlKNmGAdY7oeCZL7uUZq_c_mmUjfMfOvLTZYj2xhEHoTTxf69akCYyACcJ6BoaQtcMew0QhbT8UyBB87t9btN5z8EdpA4rSudwKcqOpHPPa3pa9-MgNfEbUvfWxR4vq8jgT-5l8tweyPOLR0ato2-75axpSdUCey_CesOXRdSfdII5iUMs48dCeV5v9rfbSbaO0cZgNVBQEufwLbBUSrjhshLRtoj1hnNgKxLXfvY98dUiiX5jGgqqLCwRbQGiA9ewk2AhOVaGsbc7Qzw_UEoMTnyOp8k47wu3Ngm6TzD1IQPoHxC-MrxswpTKkHvoJe8g9hQ6hwJfBtFM76zVPZMCWhZbwayzNbA3HD0_ValIJck3i4qT_m80]--></g></svg>