<svg xmlns="http://www.w3.org/2000/svg" xmlns:xlink="http://www.w3.org/1999/xlink" contentStyleType="text/css" data-diagram-type="ACTIVITY" height="711px" preserveAspectRatio="none" style="width:2468px;height:711px;background:#FFFFFF;" version="1.1" viewBox="0 0 2468 711" width="2468px" zoomAndPan="magnify"><title>PM Session Attendance Absence Please Check Reporting Process- VSware</title><defs/><g><g class="title" data-source-line="1"><text fill="#000000" font-family="sans-serif" font-size="14" font-weight="bold" lengthAdjust="spacing" textLength="585.3955" x="940.0477" y="32.9951">PM Session Attendance Absence Please Check Reporting Process- VSware</text></g><ellipse cx="1221.1052" cy="57.2969" fill="#222222" rx="10" ry="10" style="stroke:#222222;stroke-width:1;"/><rect fill="#F1F1F1" height="33.9688" rx="12.5" ry="12.5" style="stroke:#181818;stroke-width:0.5;" width="205.6543" x="1118.2781" y="87.2969"/><text fill="#000000" font-family="sans-serif" font-size="12" lengthAdjust="spacing" textLength="185.6543" x="1128.2781" y="108.4355">1. student Unexplained Absent</text><rect fill="#F1F1F1" height="33.9688" rx="12.5" ry="12.5" style="stroke:#181818;stroke-width:0.5;" width="216.4238" x="1112.8933" y="141.2656"/><text fill="#000000" font-family="sans-serif" font-size="12" lengthAdjust="spacing" textLength="196.4238" x="1122.8933" y="162.4043">2. Send PM rollcall ARF to Parent</text><line style="stroke:#181818;stroke-width:1.5;" x1="56.9004" x2="2288.0779" y1="195.2344" y2="195.2344"/><rect fill="#F1F1F1" height="33.9688" rx="12.5" ry="12.5" style="stroke:#181818;stroke-width:0.5;" width="91.8008" x="11" y="385.6406"/><text fill="#000000" font-family="sans-serif" font-size="12" lengthAdjust="spacing" textLength="71.8008" x="21" y="406.7793">3. Absentee</text><ellipse cx="56.9004" cy="464.6094" fill="none" rx="10" ry="10" style="stroke:#222222;stroke-width:1.5;"/><line style="stroke:#222222;stroke-width:2.5;" x1="50.7132" x2="63.0876" y1="458.4222" y2="470.7966"/><line style="stroke:#222222;stroke-width:2.5;" x1="63.0876" x2="50.7132" y1="458.4222" y2="470.7966"/><rect fill="#F1F1F1" height="33.9688" rx="12.5" ry="12.5" style="stroke:#181818;stroke-width:0.5;" width="61.3906" x="112.8008" y="385.6406"/><text fill="#000000" font-family="sans-serif" font-size="12" lengthAdjust="spacing" textLength="41.3906" x="122.8008" y="406.7793">4. Late</text><ellipse cx="143.4961" cy="464.6094" fill="none" rx="10" ry="10" style="stroke:#222222;stroke-width:1.5;"/><line style="stroke:#222222;stroke-width:2.5;" x1="137.3089" x2="149.6833" y1="458.4222" y2="470.7966"/><line style="stroke:#222222;stroke-width:2.5;" x1="149.6833" x2="137.3089" y1="458.4222" y2="470.7966"/><rect fill="#F1F1F1" height="33.9688" rx="12.5" ry="12.5" style="stroke:#181818;stroke-width:0.5;" width="114.9336" x="1084.821" y="215.2344"/><text fill="#000000" font-family="sans-serif" font-size="12" lengthAdjust="spacing" textLength="94.9336" x="1094.821" y="236.373">5. Please Check</text><line style="stroke:#181818;stroke-width:1.5;" x1="354.082" x2="1978.1257" y1="269.2031" y2="269.2031"/><rect fill="#F1F1F1" height="33.9688" rx="12.5" ry="12.5" style="stroke:#181818;stroke-width:0.5;" width="232.9473" x="237.6084" y="350.9063"/><text fill="#000000" font-family="sans-serif" font-size="12" lengthAdjust="spacing" textLength="212.9473" x="247.6084" y="372.0449">6. Staff confirms Student is Present</text><rect fill="#F1F1F1" height="33.9688" rx="12.5" ry="12.5" style="stroke:#181818;stroke-width:0.5;" width="339.7813" x="184.1914" y="419.875"/><text fill="#000000" font-family="sans-serif" font-size="12" lengthAdjust="spacing" textLength="319.7813" x="194.1914" y="441.0137">7. Staff Perform In-Class Cancelled "Mark as Present"</text><rect fill="#F1F1F1" height="33.9688" rx="12.5" ry="12.5" style="stroke:#181818;stroke-width:0.5;" width="236.6328" x="235.7656" y="488.8438"/><text fill="#000000" font-family="sans-serif" font-size="12" lengthAdjust="spacing" textLength="216.6328" x="245.7656" y="509.9824">8. Present Writeback for PM Session</text><ellipse cx="354.082" cy="568.8125" fill="none" rx="11" ry="11" style="stroke:#222222;stroke-width:1;"/><ellipse cx="354.082" cy="568.8125" fill="#222222" rx="6" ry="6" style="stroke:#222222;stroke-width:1;"/><rect fill="#F1F1F1" height="33.9688" rx="12.5" ry="12.5" style="stroke:#181818;stroke-width:0.5;" width="213.5762" x="658.709" y="289.2031"/><text fill="#000000" font-family="sans-serif" font-size="12" lengthAdjust="spacing" textLength="193.5762" x="668.709" y="310.3418">9. Staff confirms Student is Late</text><path d="M903.6172,362.8242 L903.6172,371.3906 L883.6172,375.3906 L903.6172,379.3906 L903.6172,387.957 A0,0 0 0 0 903.6172,387.957 L1186.3374,387.957 A0,0 0 0 0 1186.3374,387.957 L1186.3374,372.8242 L1176.3374,362.8242 L903.6172,362.8242 A0,0 0 0 0 903.6172,362.8242" fill="#FEFFDD" style="stroke:#181818;stroke-width:0.5;"/><path d="M1176.3374,362.8242 L1176.3374,372.8242 L1186.3374,372.8242 L1176.3374,362.8242" fill="#FEFFDD" style="stroke:#181818;stroke-width:0.5;"/><text fill="#000000" font-family="sans-serif" font-size="13" lengthAdjust="spacing" textLength="261.7202" x="909.6172" y="379.8911">Unexplained Late Writeback AM Session</text><rect fill="#F1F1F1" height="47.9375" rx="12.5" ry="12.5" style="stroke:#181818;stroke-width:0.5;" width="236.2402" x="647.377" y="351.4219"/><text fill="#000000" font-family="sans-serif" font-size="12" lengthAdjust="spacing" textLength="216.2402" x="657.377" y="372.5605">10. Staff Perform In-Class Cancelled</text><text fill="#000000" font-family="sans-serif" font-size="12" lengthAdjust="spacing" textLength="170.0566" x="657.377" y="386.5293">"Mark as Late DSI Manually"</text><rect fill="#F1F1F1" height="33.9688" rx="12.5" ry="12.5" style="stroke:#181818;stroke-width:0.5;" width="160.209" x="685.3926" y="434.3594"/><text fill="#000000" font-family="sans-serif" font-size="12" lengthAdjust="spacing" textLength="140.209" x="695.3926" y="455.498">11. Send LNR to parent</text><polygon fill="#F1F1F1" points="700.7808,503.3281,830.2134,503.3281,842.2134,515.3281,830.2134,527.3281,700.7808,527.3281,688.7808,515.3281,700.7808,503.3281" style="stroke:#181818;stroke-width:0.5;"/><text fill="#000000" font-family="sans-serif" font-size="11" lengthAdjust="spacing" textLength="129.4326" x="700.7808" y="519.1362">12. Parent submits LNR</text><text fill="#000000" font-family="sans-serif" font-size="11" lengthAdjust="spacing" textLength="59.5708" x="629.21" y="512.7339">Authorised</text><text fill="#000000" font-family="sans-serif" font-size="11" lengthAdjust="spacing" textLength="73.8096" x="842.2134" y="512.7339">Unauthorised</text><rect fill="#F1F1F1" height="47.9375" rx="12.5" ry="12.5" style="stroke:#181818;stroke-width:0.5;" width="196.3203" x="533.9727" y="537.3281"/><text fill="#000000" font-family="sans-serif" font-size="12" lengthAdjust="spacing" textLength="176.3203" x="543.9727" y="558.4668">13. Explained Late Writeback</text><text fill="#000000" font-family="sans-serif" font-size="12" lengthAdjust="spacing" textLength="67.1895" x="543.9727" y="572.4355">PM Session</text><ellipse cx="632.1328" cy="623.25" fill="none" rx="11" ry="11" style="stroke:#222222;stroke-width:1;"/><ellipse cx="632.1328" cy="623.25" fill="#222222" rx="6" ry="6" style="stroke:#222222;stroke-width:1;"/><rect fill="#F1F1F1" height="47.9375" rx="12.5" ry="12.5" style="stroke:#181818;stroke-width:0.5;" width="297.1367" x="750.293" y="537.3281"/><text fill="#000000" font-family="sans-serif" font-size="12" lengthAdjust="spacing" textLength="277.1367" x="760.293" y="558.4668">14. No writeback; Unexplained Late writeback</text><text fill="#000000" font-family="sans-serif" font-size="12" lengthAdjust="spacing" textLength="144.3281" x="760.293" y="572.4355">PM Session still remains</text><ellipse cx="898.8613" cy="623.25" fill="none" rx="11" ry="11" style="stroke:#222222;stroke-width:1;"/><ellipse cx="898.8613" cy="623.25" fill="#222222" rx="6" ry="6" style="stroke:#222222;stroke-width:1;"/><rect fill="#F1F1F1" height="33.9688" rx="12.5" ry="12.5" style="stroke:#181818;stroke-width:0.5;" width="300.3594" x="1315.5168" y="296.1875"/><text fill="#000000" font-family="sans-serif" font-size="12" lengthAdjust="spacing" textLength="280.3594" x="1325.5168" y="317.3262">15. Staff Confirms Student is in School Activity</text><path d="M1605.7239,362.2422 L1605.7239,378.375 L1585.7239,382.375 L1605.7239,386.375 L1605.7239,402.5078 A0,0 0 0 0 1605.7239,402.5078 L1837.5867,402.5078 A0,0 0 0 0 1837.5867,402.5078 L1837.5867,372.2422 L1827.5867,362.2422 L1605.7239,362.2422 A0,0 0 0 0 1605.7239,362.2422" fill="#FEFFDD" style="stroke:#181818;stroke-width:0.5;"/><path d="M1827.5867,362.2422 L1827.5867,372.2422 L1837.5867,372.2422 L1827.5867,362.2422" fill="#FEFFDD" style="stroke:#181818;stroke-width:0.5;"/><text fill="#000000" font-family="sans-serif" font-size="13" lengthAdjust="spacing" textLength="210.8628" x="1611.7239" y="379.3091">- from time = entered start time</text><text fill="#000000" font-family="sans-serif" font-size="13" lengthAdjust="spacing" textLength="187.5859" x="1611.7239" y="394.4419">- to time = entered end time</text><rect fill="#F1F1F1" height="47.9375" rx="12.5" ry="12.5" style="stroke:#181818;stroke-width:0.5;" width="240.0547" x="1345.6692" y="358.4063"/><text fill="#000000" font-family="sans-serif" font-size="12" lengthAdjust="spacing" textLength="220.0547" x="1355.6692" y="379.5449">16. Staff Perform In Class Cancelled-</text><text fill="#000000" font-family="sans-serif" font-size="12" lengthAdjust="spacing" textLength="139.5645" x="1355.6692" y="393.5137">Mark as School Activity</text><polygon fill="#F1F1F1" points="1360.5815,441.3438,1570.8115,441.3438,1582.8115,453.3438,1570.8115,465.3438,1360.5815,465.3438,1348.5815,453.3438,1360.5815,441.3438" style="stroke:#181818;stroke-width:0.5;"/><text fill="#000000" font-family="sans-serif" font-size="11" lengthAdjust="spacing" textLength="210.23" x="1360.5815" y="457.1519">17. from-to time covers whole session</text><text fill="#000000" font-family="sans-serif" font-size="11" lengthAdjust="spacing" textLength="19.0083" x="1329.5732" y="450.7495">yes</text><text fill="#000000" font-family="sans-serif" font-size="11" lengthAdjust="spacing" textLength="13.7017" x="1582.8115" y="450.7495">no</text><rect fill="#F1F1F1" height="33.9688" rx="12.5" ry="12.5" style="stroke:#181818;stroke-width:0.5;" width="228.4883" x="1224.3374" y="475.3438"/><text fill="#000000" font-family="sans-serif" font-size="12" lengthAdjust="spacing" textLength="208.4883" x="1234.3374" y="496.4824">18. write back school activity code</text><rect fill="#F1F1F1" height="33.9688" rx="12.5" ry="12.5" style="stroke:#181818;stroke-width:0.5;" width="126.3125" x="1275.4253" y="544.3125"/><text fill="#000000" font-family="sans-serif" font-size="12" lengthAdjust="spacing" textLength="106.3125" x="1285.4253" y="565.4512">19. add comment</text><ellipse cx="1338.5815" cy="616.2656" fill="none" rx="11" ry="11" style="stroke:#222222;stroke-width:1;"/><ellipse cx="1338.5815" cy="616.2656" fill="#222222" rx="6" ry="6" style="stroke:#222222;stroke-width:1;"/><rect fill="#F1F1F1" height="33.9688" rx="12.5" ry="12.5" style="stroke:#181818;stroke-width:0.5;" width="175.2031" x="1505.21" y="475.3438"/><text fill="#000000" font-family="sans-serif" font-size="12" lengthAdjust="spacing" textLength="155.2031" x="1515.21" y="496.4824">20. update comment only</text><path d="M1623.8115,544.3125 L1623.8115,552.8789 L1603.8115,556.8789 L1623.8115,560.8789 L1623.8115,569.4453 A0,0 0 0 0 1623.8115,569.4453 L1829.3062,569.4453 A0,0 0 0 0 1829.3062,569.4453 L1829.3062,554.3125 L1819.3062,544.3125 L1623.8115,544.3125 A0,0 0 0 0 1623.8115,544.3125" fill="#FEFFDD" style="stroke:#181818;stroke-width:0.5;"/><path d="M1819.3062,544.3125 L1819.3062,554.3125 L1829.3062,554.3125 L1819.3062,544.3125" fill="#FEFFDD" style="stroke:#181818;stroke-width:0.5;"/><text fill="#000000" font-family="sans-serif" font-size="13" lengthAdjust="spacing" textLength="184.4946" x="1629.8115" y="561.3794">do not change existing code</text><ellipse cx="1592.8115" cy="556.8789" fill="none" rx="11" ry="11" style="stroke:#222222;stroke-width:1;"/><ellipse cx="1592.8115" cy="556.8789" fill="#222222" rx="6" ry="6" style="stroke:#222222;stroke-width:1;"/><rect fill="#F1F1F1" height="33.9688" rx="12.5" ry="12.5" style="stroke:#181818;stroke-width:0.5;" width="235.4902" x="1860.3806" y="350.9063"/><text fill="#000000" font-family="sans-serif" font-size="12" lengthAdjust="spacing" textLength="215.4902" x="1870.3806" y="372.0449">21. Staff confirms student is Absent</text><rect fill="#F1F1F1" height="33.9688" rx="12.5" ry="12.5" style="stroke:#181818;stroke-width:0.5;" width="261.0781" x="1847.5867" y="419.875"/><text fill="#000000" font-family="sans-serif" font-size="12" lengthAdjust="spacing" textLength="241.0781" x="1857.5867" y="441.0137">22. Staff Perform Not In-Class Cancelled</text><rect fill="#F1F1F1" height="33.9688" rx="12.5" ry="12.5" style="stroke:#181818;stroke-width:0.5;" width="178.3438" x="1888.9539" y="488.8438"/><text fill="#000000" font-family="sans-serif" font-size="12" lengthAdjust="spacing" textLength="158.3438" x="1898.9539" y="509.9824">23. Re-send ARF to parent</text><ellipse cx="1978.1257" cy="568.8125" fill="none" rx="11" ry="11" style="stroke:#222222;stroke-width:1;"/><ellipse cx="1978.1257" cy="568.8125" fill="#222222" rx="6" ry="6" style="stroke:#222222;stroke-width:1;"/><rect fill="#F1F1F1" height="33.9688" rx="12.5" ry="12.5" style="stroke:#181818;stroke-width:0.5;" width="184.3145" x="2195.9207" y="350.1563"/><text fill="#000000" font-family="sans-serif" font-size="12" lengthAdjust="spacing" textLength="164.3145" x="2205.9207" y="371.2949">24. Pending AM rollcall ARF</text><rect fill="#F1F1F1" height="33.9688" rx="12.5" ry="12.5" style="stroke:#181818;stroke-width:0.5;" width="338.8262" x="2118.6648" y="419.125"/><text fill="#000000" font-family="sans-serif" font-size="12" lengthAdjust="spacing" textLength="318.8262" x="2128.6648" y="440.2637">25. Parent not submit ARF it continues to PM Session</text><ellipse cx="2288.0779" cy="499.0938" fill="none" rx="11" ry="11" style="stroke:#222222;stroke-width:1;"/><ellipse cx="2288.0779" cy="499.0938" fill="#222222" rx="6" ry="6" style="stroke:#222222;stroke-width:1;"/><path d="M673.385,644.25 L673.385,699.6484 A0,0 0 0 0 673.385,699.6484 L1190.1052,699.6484 A0,0 0 0 0 1190.1052,699.6484 L1190.1052,675.9492 L1210.1052,671.9492 L1190.1052,667.9492 L1190.1052,654.25 L1180.1052,644.25 L673.385,644.25 A0,0 0 0 0 673.385,644.25" fill="#FEFFDD" style="stroke:#181818;stroke-width:0.5;"/><path d="M1180.1052,644.25 L1180.1052,654.25 L1190.1052,654.25 L1180.1052,644.25" fill="#FEFFDD" style="stroke:#181818;stroke-width:0.5;"/><text fill="#000000" font-family="sans-serif" font-size="13" lengthAdjust="spacing" textLength="495.7202" x="679.385" y="661.3169">At 4 PM, the system rechecks all "Success" or "NA" Late &amp; Absence records.</text><text fill="#000000" font-family="sans-serif" font-size="13" lengthAdjust="spacing" textLength="408.77" x="679.385" y="676.4497">If any student still appears as Unexplained ABS in any session,</text><text fill="#000000" font-family="sans-serif" font-size="13" lengthAdjust="spacing" textLength="345.1855" x="679.385" y="691.5825">the system will trigger a writeback for those records.</text><ellipse cx="1221.1052" cy="671.9492" fill="none" rx="11" ry="11" style="stroke:#222222;stroke-width:1;"/><ellipse cx="1221.1052" cy="671.9492" fill="#222222" rx="6" ry="6" style="stroke:#222222;stroke-width:1;"/><line style="stroke:#181818;stroke-width:1;" x1="1221.1052" x2="1221.1052" y1="67.2969" y2="87.2969"/><polygon fill="#181818" points="1217.1052,77.2969,1221.1052,87.2969,1225.1052,77.2969,1221.1052,81.2969" style="stroke:#181818;stroke-width:1;"/><line style="stroke:#181818;stroke-width:1;" x1="1221.1052" x2="1221.1052" y1="121.2656" y2="141.2656"/><polygon fill="#181818" points="1217.1052,131.2656,1221.1052,141.2656,1225.1052,131.2656,1221.1052,135.2656" style="stroke:#181818;stroke-width:1;"/><line style="stroke:#181818;stroke-width:1;" x1="56.9004" x2="56.9004" y1="419.6094" y2="454.6094"/><polygon fill="#181818" points="52.9004,444.6094,56.9004,454.6094,60.9004,444.6094,56.9004,448.6094" style="stroke:#181818;stroke-width:1;"/><line style="stroke:#181818;stroke-width:1;" x1="143.4961" x2="143.4961" y1="419.6094" y2="454.6094"/><polygon fill="#181818" points="139.4961,444.6094,143.4961,454.6094,147.4961,444.6094,143.4961,448.6094" style="stroke:#181818;stroke-width:1;"/><line style="stroke:#181818;stroke-width:1;" x1="354.082" x2="354.082" y1="384.875" y2="419.875"/><polygon fill="#181818" points="350.082,409.875,354.082,419.875,358.082,409.875,354.082,413.875" style="stroke:#181818;stroke-width:1;"/><line style="stroke:#181818;stroke-width:1;" x1="354.082" x2="354.082" y1="453.8438" y2="488.8438"/><polygon fill="#181818" points="350.082,478.8438,354.082,488.8438,358.082,478.8438,354.082,482.8438" style="stroke:#181818;stroke-width:1;"/><line style="stroke:#181818;stroke-width:1;" x1="354.082" x2="354.082" y1="522.8125" y2="557.8125"/><polygon fill="#181818" points="350.082,547.8125,354.082,557.8125,358.082,547.8125,354.082,551.8125" style="stroke:#181818;stroke-width:1;"/><line style="stroke:#181818;stroke-width:1;" x1="765.4971" x2="765.4971" y1="323.1719" y2="351.4219"/><polygon fill="#181818" points="761.4971,341.4219,765.4971,351.4219,769.4971,341.4219,765.4971,345.4219" style="stroke:#181818;stroke-width:1;"/><line style="stroke:#181818;stroke-width:1;" x1="765.4971" x2="765.4971" y1="399.3594" y2="434.3594"/><polygon fill="#181818" points="761.4971,424.3594,765.4971,434.3594,769.4971,424.3594,765.4971,428.3594" style="stroke:#181818;stroke-width:1;"/><line style="stroke:#181818;stroke-width:1;" x1="632.1328" x2="632.1328" y1="585.2656" y2="612.25"/><polygon fill="#181818" points="628.1328,602.25,632.1328,612.25,636.1328,602.25,632.1328,606.25" style="stroke:#181818;stroke-width:1;"/><line style="stroke:#181818;stroke-width:1;" x1="898.8613" x2="898.8613" y1="585.2656" y2="612.25"/><polygon fill="#181818" points="894.8613,602.25,898.8613,612.25,902.8613,602.25,898.8613,606.25" style="stroke:#181818;stroke-width:1;"/><line style="stroke:#181818;stroke-width:1;" x1="688.7808" x2="632.1328" y1="515.3281" y2="515.3281"/><line style="stroke:#181818;stroke-width:1;" x1="632.1328" x2="632.1328" y1="515.3281" y2="537.3281"/><polygon fill="#181818" points="628.1328,527.3281,632.1328,537.3281,636.1328,527.3281,632.1328,531.3281" style="stroke:#181818;stroke-width:1;"/><line style="stroke:#181818;stroke-width:1;" x1="842.2134" x2="898.8613" y1="515.3281" y2="515.3281"/><line style="stroke:#181818;stroke-width:1;" x1="898.8613" x2="898.8613" y1="515.3281" y2="537.3281"/><polygon fill="#181818" points="894.8613,527.3281,898.8613,537.3281,902.8613,527.3281,898.8613,531.3281" style="stroke:#181818;stroke-width:1;"/><line style="stroke:#181818;stroke-width:1;" x1="765.4971" x2="765.4971" y1="468.3281" y2="503.3281"/><polygon fill="#181818" points="761.4971,493.3281,765.4971,503.3281,769.4971,493.3281,765.4971,497.3281" style="stroke:#181818;stroke-width:1;"/><line style="stroke:#181818;stroke-width:1;" x1="1465.6965" x2="1465.6965" y1="330.1563" y2="358.4063"/><polygon fill="#181818" points="1461.6965,348.4063,1465.6965,358.4063,1469.6965,348.4063,1465.6965,352.4063" style="stroke:#181818;stroke-width:1;"/><line style="stroke:#181818;stroke-width:1;" x1="1338.5815" x2="1338.5815" y1="509.3125" y2="544.3125"/><polygon fill="#181818" points="1334.5815,534.3125,1338.5815,544.3125,1342.5815,534.3125,1338.5815,538.3125" style="stroke:#181818;stroke-width:1;"/><line style="stroke:#181818;stroke-width:1;" x1="1338.5815" x2="1338.5815" y1="578.2813" y2="605.2656"/><polygon fill="#181818" points="1334.5815,595.2656,1338.5815,605.2656,1342.5815,595.2656,1338.5815,599.2656" style="stroke:#181818;stroke-width:1;"/><line style="stroke:#181818;stroke-width:1;" x1="1592.8115" x2="1592.8115" y1="509.3125" y2="545.8789"/><polygon fill="#181818" points="1588.8115,535.8789,1592.8115,545.8789,1596.8115,535.8789,1592.8115,539.8789" style="stroke:#181818;stroke-width:1;"/><line style="stroke:#181818;stroke-width:1;" x1="1348.5815" x2="1338.5815" y1="453.3438" y2="453.3438"/><line style="stroke:#181818;stroke-width:1;" x1="1338.5815" x2="1338.5815" y1="453.3438" y2="475.3438"/><polygon fill="#181818" points="1334.5815,465.3438,1338.5815,475.3438,1342.5815,465.3438,1338.5815,469.3438" style="stroke:#181818;stroke-width:1;"/><line style="stroke:#181818;stroke-width:1;" x1="1582.8115" x2="1592.8115" y1="453.3438" y2="453.3438"/><line style="stroke:#181818;stroke-width:1;" x1="1592.8115" x2="1592.8115" y1="453.3438" y2="475.3438"/><polygon fill="#181818" points="1588.8115,465.3438,1592.8115,475.3438,1596.8115,465.3438,1592.8115,469.3438" style="stroke:#181818;stroke-width:1;"/><line style="stroke:#181818;stroke-width:1;" x1="1465.6965" x2="1465.6965" y1="406.3438" y2="441.3438"/><polygon fill="#181818" points="1461.6965,431.3438,1465.6965,441.3438,1469.6965,431.3438,1465.6965,435.3438" style="stroke:#181818;stroke-width:1;"/><line style="stroke:#181818;stroke-width:1;" x1="1978.1257" x2="1978.1257" y1="384.875" y2="419.875"/><polygon fill="#181818" points="1974.1257,409.875,1978.1257,419.875,1982.1257,409.875,1978.1257,413.875" style="stroke:#181818;stroke-width:1;"/><line style="stroke:#181818;stroke-width:1;" x1="1978.1257" x2="1978.1257" y1="453.8438" y2="488.8438"/><polygon fill="#181818" points="1974.1257,478.8438,1978.1257,488.8438,1982.1257,478.8438,1978.1257,482.8438" style="stroke:#181818;stroke-width:1;"/><line style="stroke:#181818;stroke-width:1;" x1="1978.1257" x2="1978.1257" y1="522.8125" y2="557.8125"/><polygon fill="#181818" points="1974.1257,547.8125,1978.1257,557.8125,1982.1257,547.8125,1978.1257,551.8125" style="stroke:#181818;stroke-width:1;"/><line style="stroke:#181818;stroke-width:1;" x1="354.082" x2="354.082" y1="270.7031" y2="350.9063"/><polygon fill="#181818" points="350.082,340.9063,354.082,350.9063,358.082,340.9063,354.082,344.9063" style="stroke:#181818;stroke-width:1;"/><line style="stroke:#181818;stroke-width:1;" x1="765.4971" x2="765.4971" y1="270.7031" y2="289.2031"/><polygon fill="#181818" points="761.4971,279.2031,765.4971,289.2031,769.4971,279.2031,765.4971,283.2031" style="stroke:#181818;stroke-width:1;"/><line style="stroke:#181818;stroke-width:1;" x1="1465.6965" x2="1465.6965" y1="270.7031" y2="296.1875"/><polygon fill="#181818" points="1461.6965,286.1875,1465.6965,296.1875,1469.6965,286.1875,1465.6965,290.1875" style="stroke:#181818;stroke-width:1;"/><line style="stroke:#181818;stroke-width:1;" x1="1978.1257" x2="1978.1257" y1="270.7031" y2="350.9063"/><polygon fill="#181818" points="1974.1257,340.9063,1978.1257,350.9063,1982.1257,340.9063,1978.1257,344.9063" style="stroke:#181818;stroke-width:1;"/><line style="stroke:#181818;stroke-width:1;" x1="1142.2878" x2="1142.2878" y1="249.2031" y2="269.2031"/><polygon fill="#181818" points="1138.2878,259.2031,1142.2878,269.2031,1146.2878,259.2031,1142.2878,263.2031" style="stroke:#181818;stroke-width:1;"/><line style="stroke:#181818;stroke-width:1;" x1="2288.0779" x2="2288.0779" y1="384.125" y2="419.125"/><polygon fill="#181818" points="2284.0779,409.125,2288.0779,419.125,2292.0779,409.125,2288.0779,413.125" style="stroke:#181818;stroke-width:1;"/><line style="stroke:#181818;stroke-width:1;" x1="2288.0779" x2="2288.0779" y1="453.0938" y2="488.0938"/><polygon fill="#181818" points="2284.0779,478.0938,2288.0779,488.0938,2292.0779,478.0938,2288.0779,482.0938" style="stroke:#181818;stroke-width:1;"/><line style="stroke:#181818;stroke-width:1;" x1="56.9004" x2="56.9004" y1="196.7344" y2="385.6406"/><polygon fill="#181818" points="52.9004,375.6406,56.9004,385.6406,60.9004,375.6406,56.9004,379.6406" style="stroke:#181818;stroke-width:1;"/><line style="stroke:#181818;stroke-width:1;" x1="143.4961" x2="143.4961" y1="196.7344" y2="385.6406"/><polygon fill="#181818" points="139.4961,375.6406,143.4961,385.6406,147.4961,375.6406,143.4961,379.6406" style="stroke:#181818;stroke-width:1;"/><line style="stroke:#181818;stroke-width:1;" x1="1142.2878" x2="1142.2878" y1="196.7344" y2="215.2344"/><polygon fill="#181818" points="1138.2878,205.2344,1142.2878,215.2344,1146.2878,205.2344,1142.2878,209.2344" style="stroke:#181818;stroke-width:1;"/><line style="stroke:#181818;stroke-width:1;" x1="2288.0779" x2="2288.0779" y1="196.7344" y2="350.1563"/><polygon fill="#181818" points="2284.0779,340.1563,2288.0779,350.1563,2292.0779,340.1563,2288.0779,344.1563" style="stroke:#181818;stroke-width:1;"/><line style="stroke:#181818;stroke-width:1;" x1="1221.1052" x2="1221.1052" y1="175.2344" y2="195.2344"/><polygon fill="#181818" points="1217.1052,185.2344,1221.1052,195.2344,1225.1052,185.2344,1221.1052,189.2344" style="stroke:#181818;stroke-width:1;"/><!--SRC=[ZLLTRzem57tFhxZYOMgbWGPhkmsqXunjKgKM8L2tPpUv0Qk97TccBVz-zzhaWuIovWLXd_jzVAwJBaTOtiCQhPLQGUmSgbIe125-jCY_ono5HPXlCNc25PRQEAasi3Gw8QCX_5c_28DHP9qmBfgEHs3TBaNbu47XQvaBgJ0DtjmiYgQJ4KLJAKSrEiyJaUSGhtw3qx0aHnvaorow2EYRVXuTR15d_eHimps83VaEgAiHt0bt3d4zEgg4Wl1n4yY3RYWt9x8C4gqoQGfBVqCjqbB566geuLyg-19Dfaq1jseupuMrCESMvZaLFhWNvWb4RJvesNyTLQVmrqY7Zu9QJ8vQ4sdGrkcooRbLcdVrxLpcJMiyTlpf7NdNyBe0zW8_rxTmBzIEfhPlbQ8qtHcvsJRDR4_VcpObndLvDPePmKvQMOuFHBbRh9WSPKKEQ7qoWuinCIem1-pkiP3Eiiabk2qgk8XtRgkDj9XU7bc66CIkNszasKEV6aflE7KzEJ7jua69i-69jWiDBrN8MRzfzHsSoOV2Itf51WkojE_9JgKoUvDC8RVhYYJp4uoI2jR9LcjwkecJpzBjPntpcpx7eCEnuP59HRDpVa_GZByXP4ONu6I1y1rOAmprpmkIF-o0YKmTADEi1-nHahy- -qW4EFgmyfhePpGMNhQQfDM60LLatAFjqc0w9XNmKmO_PXlA5uVooLsAivuDFNUHfdHP54UIT9QDIlU2JqWATcNAJ3lu0gto_NyTlZaA_bBDjv1iXTeWuAkqVcDm9HtioHQ_WvoJSK_kR4FEQjSScqowX5nGZdtXwvgHGgnmQ3dJmvQgXEXaWnWNbaex-Uc4NlgI2wC-nCUBRqQtrxM2SUE2Ylbmz4CLKljsQFs6R6cGZzd4Yw9muWSJnGwk2FsHYGTsRnqMf0y9hpuB77cmtYMym0T0-sQmY0T1RpxKUv_GsgHs5Drc8DI-Rd3G6b6MA8Zcz62FrloFDMk3nuSyFqQj35xOr15hDcX0jCIDbnu9fMs5hRZn3m00]--></g></svg>